<svg xmlns="http://www.w3.org/2000/svg" fill="#000000" viewBox="0 0 1000 965"><path d="M-14 0h1023v993H-14V0ZM94.438 36.5c22.667 1.752 54.3 1.557 75.7-3.069h16.368c13.412-2.921 30.863-1.486 43.989-4.092V23.2c2.011-3.2 1.367-13.642 2.046-17.391H230.5c-2.994-1.885-31.947-1.287-37.851 0-11.79 2.57-25.86-.791-38.874 2.046-17.611 3.839-38.948 2.869-58.311 3.069-2.093 3.316-3.056 4.124-3.069 10.23 1.905 2.934 1.953 11.272 2.043 15.346Zm487.971 113.548-2.046-105.369a160.6 160.6 0 0 1 31.713 1.021v-2.044c3.2-4.867.3-15.727 0-21.483h-2.046c-8.751-5.753-39.87-2.676-52.173-2.046-1.253 2.334-1.676 2.3-2.046 6.138-4.038 6.462-1.023 25.844-1.023 34.782l2.046 90.024c-18.072 2.411-47.62 6.363-65.472 0l2.046-14.322c6.527-17.315 23.554-17.862 48.081-17.391l1.023-3.069c4.955-7.576-.772-48.263-3.069-54.219-7.562-.905-15.653-.251-23.529 0-1.289 10.681.866 19.355 1.023 30.69h-2.046c-7.693 5-20.624 5.458-28.644 11.253-17.339 12.528-23.634 46.891-17.391 73.656 57.831 4.49 147.078 7.311 171.864-30.69 14.953-22.926 9.518-68.2 9.207-103.323L653 42.633c4.246-2.987 14.268-2.292 21.483-2.046 14.795.5 31.825-.1 47.058 0 1.366 12.062 0 24.879 0 38.874l1.023 57.288h2.046c5.388 3.526 14.859 1.336 21.483 1.023 4.421-13.286 1.1-43.187 1.023-59.334 2.895-4.539 1.139-28.217 1.023-35.805h43.989a113.785 113.785 0 0 1 25.572-3.069v1.023l-7.161 8.184c-9 6.55-22.381 10.311-28.644 19.437-6.824 9.943-10.347 24.628-13.3 37.851-1.508 6.755.98 14.557 2.046 19.437 1.97 9.021-.516 20.966-1.023 28.644-21.963.356-49.523 3.65-72.633 1.023l-1.023-41.943c3.333-15.084 4.247-33.532 3.069-51.15-3.157-1.992-3.509-2.953-9.207-3.069-3.369 2.253-10.131 1.642-13.3 4.092-3.7 5.41-.319 14.531-2.046 22.506-3.882 17.927-1 44.192-5.115 62.4-2.469 1.7-4.354 4.87-7.161 6.138-6.92 3.126-14.479 2.383-19.437 7.161 3.45 5.5 3.448 17.452 9.207 20.46 8.746 5.483 22.623-3.382 33.759-1.023 33.826 7.165 77.062-.434 109.461-3.069 1.4-33.653-8.011-74.845 7.161-99.231 9.344-15.019 30.419-22.625 42.966-34.782l9.207-6.138V19.1c-1.69-2.482-1.968-7.36-2.046-11.253h-2.046c-3.4-2.115-12.2-1.037-17.391-1.023L791.1 8.874c-12.092.413-27.262 1.023-40.92 1.023H728.7c-17.269 3.837-37.8 4.093-59.334 4.092H650.95c-4.607-1.107-8.929-2.927-15.345-3.069-2.466 4.85-7.642 7.916-9.207 13.3-3.029 10.422.269 36.675 2.046 45.012 1.825 8.561-.45 21.479-2.046 28.644l-2.046 19.437c-5.616 20.098-18.39 31.112-41.943 32.735Zm-561.627 6.138c.046-40.159 49.766-34.433 53.2-77.748l52.173-3.069c.762 12.3 2.95 23.559 3.069 36.828-19.048-.1-36.2-.88-52.173 1.023a101.568 101.568 0 0 0 2.046 23.529c4.405 2.749 9.3 3.232 17.391 3.069 6.027-3.813 50.029-.165 59.334 0v-2.046c6.74-9.484.178-49.852 0-63.426l48.081 1.023c.177 16.49.044 30.461 0 46.035-.018 6.292 1.68 18.212-1.023 22.506-5.784 16.3-46.879 16.536-70.587 16.368v2.046c-3.054 4.618-.373 15.14 0 20.46l3.069 1.023c9.523 6.875 34.906.2 43.989-2.046 14.925-3.694 25.606-4.639 35.8-12.276 13.814-10.345 20.186-55.392 14.322-81.84-2.141-9.654.709-34.7-4.092-40.92-2.037-1.368-6.657-1.129-10.23-1.023-8.632 5.355-34.189 3.07-47.058 3.069-33.44 0-59.859 3.093-92.07 3.069L75 50.817a370.778 370.778 0 0 1-2.046-39.9h-2.045c-4.635-3.068-16.327-.5-21.483 0-1.253 2.334-1.676 2.3-2.046 6.138-3.3 5.382.792 16.674 2.046 21.483 3.081 11.821 2.194 33.211-1.023 43.989-5.424 18.173-22.3 22.691-35.8 32.736-17.673 13.14-22.657 41.005-16.368 68.541h13.3c5.308-3.216 20.145-1.023 27.621-1.023 19.3 0 35.4 1.588 52.173-2.046 7.374-1.6 16.075 1.347 21.483-2.046 1.9-2.876 1.154-10.729 1.023-15.345l-3.069-8.184c-2.728-.945-7.091-1.075-11.253-1.023-10.333 6.506-60.113 2.154-76.731 2.049Zm230.175 19.437c7.991.975 20.363 5.014 29.667 3.069 9.732-2.034 21.78-3.178 31.713-4.092 19.983-1.838 43.369-.406 59.334 3.069 10.807 2.352 21.833-1.411 30.69-2.046.712-8.546.6-16.979-1.023-24.552h-2.046c-6.976-4.362-20.019 2.018-27.621 1.023-8.453-1.107-20.566-1.3-28.644-3.069h-15.345c-2.876-.605-9.853-2.015-14.322-1.023-6.525 1.448-14.171 3.2-20.46 4.092l-1.023-1.023L292.9 148c17.544-18.438 35.106-37.417 43.989-64.449 3.89-11.836 1.98-27.534 6.138-39.9 21.719-2.52 52.084 3.437 70.587-4.092 2.537-6.407 3.105-14.3 3.069-23.529-16.261 0-33.9 5.723-51.15 2.046-13.418-2.861-37.145-3.2-48.081-1.023V32.4c-4.343 7.389 1.144 22.339-1.023 31.713-5.263 22.764-12.966 32.707-24.552 48.081-3.912 5.191-7.936 12.859-15.345 14.322Q275 69.749 273.463 12.966a11.2 11.2 0 0 1-3.069-2.046 94.871 94.871 0 0 1-20.46 2.046 22 22 0 0 0-1.023 7.161c-3.69 5.919.634 35.43 2.046 41.943v40.92c.006 9.533.292 19.482 2.046 27.621 3.228 14.974-1.78 31.244-2.046 45.012Zm240.405-86.955c-.3-12.721-1-27.754-1.023-41.943 14.727-1 32.782-1.014 49.1-1.023.849-7.21 2.02-14.273 2.046-23.529l-3.069-2.046c-5.268-4.075-17.289-1.528-24.552-1.023l-19.433 2.046c-3.265-.75-7.678-3.919-12.276-3.069-5.035.931-12.127 2.912-17.391 4.092-2.056 3.857-2.171 9.8-2.046 16.368 4.942 7.84 2.044 40.479 4.092 51.15a16.044 16.044 0 0 0 5.115 1.023c3.84 1.907 14.446-1.294 19.437-2.046Zm-132.99 57.288c7.726.244 18.776.3 23.529-3.069 4.023-6.385 1.135-45.529 1.023-56.265l1.023-1.023c10.967-.879 23.493-1.034 33.759 1.023 1.433 12.845 1.286 30.333-1.023 41.943l3.069 47.058h23.529c1.313-18.806-1.043-36.342-1.023-57.288l1.023-33.759c-.841-3.841-3.534-12.659-3.069-16.368.255-2.032 1.877-4.373 2.046-8.184a18.454 18.454 0 0 1-4.092-3.069c-25.229-1.18-51.448 2.89-77.748 3.069v2.046c-2.909 4.671-1.023 17.809-1.023 24.552l-1.023 59.334Zm497.178 75.7c8.468-.966 19.667-1.033 29.667-1.023v2.046c-10.733 13.465-5.978 30.359-10.23 50.127-2.5 11.605-1.12 25.246-1.023 37.851.152 19.692-1 38.819 1.023 56.265 8.161.27 18.757.468 23.529-3.069 2.952-4.631 1.139-29.082 1.023-36.828 3.487-5.834 1.543-29.91 2.046-38.874.344-6.129.772-17.641 2.046-23.529v-15.343c3.659-13.059 17.92-27.718 32.736-29.667.888-7.22 2.026-15.046 2.046-24.552l-3.069-1.023c-5.276-3.29-11.855 1.321-18.414 0-9.729-1.96-32.926-1.365-43.989 1.023h-36.828c-1.642 2.351-2.191 1.545-3.069 5.115-5.5 9.193.91 40.012-2.046 53.2-6.657 29.7-20.207 50.373-43.989 62.4v-2.046c-3.085-4.913-2.762-17.757-2.046-25.575 1.7-18.585.335-41.151 1.023-61.38.252-7.412 3.243-20.888-1.023-26.6v-1.023c-6.951-1.056-20.319-2.63-23.529 3.069-6.423 10.142.146 30.152-1.023 42.966-2.717 29.788-3.128 60.863-3.069 92.07H755.3c-7.313 4.667-39.081 2.156-51.15 2.046v-2.046h1.023c4.01-11.242 19.772-11.074 30.69-15.345 2.835-5.816 1.968-15.663-2.046-20.46-1.325-.9-2.523-.915-5.115-1.023-6.991-4.5-21.254.845-25.575 3.069-19.753 10.168-27.165 29.9-26.6 60.357a18.432 18.432 0 0 1 4.092 3.069c13.644.4 26.251-.326 38.874-3.069h37.851c29.254 0 55.187.974 82.863-1.023a18.432 18.432 0 0 1 3.069-4.092c.452-6.2 2.477-13.99-1.023-18.414-4.3-3.714-29.752-3.963-37.851-4.092v-2.046c8.1-4.85 13.218-12.945 20.46-18.414 25.527-19.273 30.721-48.688 30.688-94.115ZM572.179 223.7c16.437.044 33-.9 48.081-1.023l1.023 1.023c4.295 36.625-24.906 45.557-37.851 67.518-8.8 14.92-5.132 47.311-3.069 66.5a122.534 122.534 0 0 0 23.529-1.023c.307-16.9-2.135-48.54 5.115-60.357 9.163-14.936 26.689-22.809 33.759-39.9 7.314-17.677 2.915-41.571 3.069-62.4a85.574 85.574 0 0 0-19.437 2.046c-4.476.981-11.44-.41-14.322-1.023-13.083-2.784-29.63.922-38.874 3.069-2.633 4.987-2.173 14.537-2.046 22.506.769 1.097.615.964 1.023 3.064Zm-162.657-27.617c-1.159 1.581-1.11.862-2.046 3.069-5.56 9.214 7.4 34.989 6.138 47.058-2.325 22.3-8.824 40.415-26.6 47.058-16.556 6.187-43.506 1.14-62.4 1.023v2.046c-3.426 4.46-2.367 19.379 1.023 23.529 5.014 3.178 34.414 2.442 40.92 1.023 11.682-2.548 20.986-.506 30.69-4.092 30.754-11.366 39.416-39.97 38.874-82.863h2.046c2.02 13.4 21.361 26.481 28.644 36.828 13.013 18.489 13.109 33.24 13.3 62.4-4.717 1.609-13.092 1.1-19.437 1.023-4.255-2.681-11.052-.059-16.368 0-12.116.136-21.631-3.94-31.713-2.046v8.184l5.115 15.345c10.257 5.813 39.549 6.3 54.219 3.069 3.208-.706 7.582.66 9.207 1.023 8.951 2 16.839.317 23.529-1.023 1.191-4.53 3-10.349 4.092-15.345v-24.549c9.087-45.173-33.954-70.107-50.127-94.116H470.9c4.123-2.574 15.407-1.023 21.483-1.023l49.1-1.023v-2.046c4.053-5.138 2.684-15.45 2.046-22.506a25.667 25.667 0 0 0-8.184-1.023c-7.9-4.905-25.767.909-34.782 1.023-31.02.391-62.738-1.914-91.041-2.046ZM666.3 256.44a221.759 221.759 0 0 0 23.529 1.023c.332-14.044 4.725-50.846-2.046-60.357-2.365-1.576-8.292-1.145-12.276-1.023-2.724 1.664-7.844 1.225-10.23 3.069-6.133 9.486-.419 46.264 1.023 57.288Zm60.357-59.334c-2.953 1.944-9.91 2.032-14.322 2.046l-1.023 3.069c-2.9 4.637-.011 13.109 0 19.437l-1.023 42.966-3.069 1.023c-4.091 2.447-11.821-.3-17.391 1.023-6.092 1.445-13.86 2.606-20.46 5.115-6.815 2.59-10.376 8.874-15.345 13.3-25.98 23.137-20.11 32.584-19.437 74.679l1.023 1.023c6.872.552 15.775 1.342 22.506 0V338.28c-2.935-4.665-.3-14.589 1.023-18.414 6.1-17.645 19.962-26.106 38.874-30.69 11.259-2.729 27.656 3.46 35.8-2.046 4.122-6.515.135-17.6 2.046-26.6 3.823-18 .129-41.87 0-60.357l-3.069-3.069h-6.138Zm-624.03 143.22c-.808 6.579-2.022 12.846-2.046 21.483h2.046c8.117 5.448 41.873 1.357 50.127-1.023 38.139-11 55.237-25.662 48.081-74.679-1.352-9.26.676-20.84-1.023-28.644-3.775-17.344 12.3-55.992-8.184-56.265-2.909 1.9-9.7 2.359-13.3 3.069-1.253 2.334-1.676 2.3-2.046 6.138-3.423 5.57-1.278 24.734 0 30.69v55.242l1.023 21.483c-5.826 17.887-49.927 22.114-74.683 22.506Zm186.181-134.013c.729 48.427 4.625 75.142-21.483 101.277-4.564 4.568-8.656 10.994-15.345 13.3-2.664-26.052-1.951-56.328-1.023-82.863.289-8.274 2.112-27.544-3.069-30.69-5.009-3.3-15.41.576-21.483 1.023v2.046c-6.954 9.213 1.467 28.122-1.023 39.9-2.014 9.525-.007 20.068 0 30.69l1.023 83.886c4.687-.109 7.265-1.341 10.23-2.046l15.345 1.023H253c1.543-.754 1.965-4.346 4.092-5.115h42.966l46.035-1.023c6.722 1.43 21.094 3.9 28.644 2.046 4.311-1.057 8.176-3.372 13.3-4.092-.04-6.451-1.887-16.507-5.115-20.46-5.014-3.1-16.4-.611-22.506-2.046-17.984-4.226-39.54-2.812-57.288 1.023-9.735 2.1-18.869-1.5-26.6-2.046v-1.023c.823-1.045.363-.28 1.023-2.046 17.672-11.7 30.641-27.728 35.805-52.173 22.84-2.435 49.449 5.156 70.587-2.046.818-7.267 2.007-13.669 2.046-22.506-2.334-1.253-2.3-1.676-6.138-2.046-4.122-2.563-16.224-.916-20.46 0-13.416 2.9-32.472 1.341-43.989-1.023v-18.418c26.322.031 43.293-4.874 68.541-2.046l1.023-3.069c3.508-4.472 3.207-13.5 3.069-21.483l-1.023-1.023c-8.712-1.03-23.2-4.567-32.736-2.046-5.025 1.328-9.523 3.091-17.391 3.069l-32.736-2.046c-5.155 1.211-9.243 3.561-15.341 4.092ZM137.4 225.75l-33.759 3.069c-1.253 2.334-1.676 2.3-2.046 6.138-2.094 3.21-1.1 11.867 0 16.368 3.576 14.653 4.057 32.229 4.092 51.15.013 7.158-.519 17.759 4.092 20.46 5.009 3.3 15.41-.576 21.483-1.023 1.554-8.247 6.479-7.752 16.368-7.161 3.574-2.333 13.962-1.157 19.437-1.023l1.023-1.023c.632-6.636 2.861-18.589-1.023-23.529-7.77-5.178-25.713-1.24-35.805-1.023-2.93-8.718-1.107-24.162-1.023-34.782l3.069-1.023c6.7-4.438 21.662-.219 31.713 0 1.86-13.687 1.97-38.265-5.115-47.058-1.88-1.267-5.835-1.114-9.207-1.023-3.186 2.137-9.291 1.77-12.276 4.092-2.11 3.223-1.152 12.347-1.023 17.391Zm-68.537-18.414c-3.959 2.53-11.468 1.439-15.345 4.092-3.1 4.817-1.159 19.6-1.023 26.6 1.344 2.1 1.58 8.69 2.046 11.253a25.668 25.668 0 0 0 8.184 1.023c4.286-2.772 14.133-1.21 16.368-6.138 3.821-5.7-1.142-31.214-3.069-35.8L75 207.336h-6.137Zm463.419 151.4 23.529 2.046c1.145-9.982.916-22.92-1.023-31.713l1.023-63.426 3.069-1.023c7.874-5.7 25.98-.446 35.8 0a202.422 202.422 0 0 0 2.046-25.575 184.869 184.869 0 0 0-65.472 3.069c-1.253 2.334-1.676 2.3-2.046 6.138-4.092 6.533 1.017 21.714 1.023 30.69l-1.023 57.288a146.348 146.348 0 0 1 3.074 22.51ZM81.139 365.9c.821-11.61-2.069-21.815-2.046-34.782.028-15.775 2.8-30.775 0-45.012H75c-3.054-1.42-15.885 1.93-20.46 3.069v2.046c-3.173 4.635-2.045 14.955-2.046 22.506 0 20.373.584 39.564 4.092 55.242a18.724 18.724 0 0 0 6.138 1.023c4.076-2.93 11.991-3.984 18.415-4.092ZM973.2 384.315c-4.817 2.928-13.864.986-18.414 4.092-2.114 3.223-1.156 12.347-1.023 17.391-4.724 7.55-.818 27.233-3.069 37.851-3.359 15.846-.134 40.611 3.069 55.242 1.035 4.73-.35 12.209-1.023 15.345-2.219 10.337-.721 21.257 1.023 29.667a22 22 0 0 0 7.161 1.023c3.049 2 11.538 1.155 16.368 1.023V543.9c4.546-6.038 2.052-33.617 2.046-43.989-.01-18.064-2.045-35.238-2.046-55.242v-18.411a134.224 134.224 0 0 0 3.069-37.851 54.153 54.153 0 0 0-7.161-4.092Zm-508.436 28.644v3.069c-11.4 10.45-24.063 18.22-37.851 26.6-6.915 4.2-15.068 5.727-19.437 12.276-9.532 14.29-4.328 45.771-4.092 66.5-24.788-.055-46.137 3.457-67.518 2.046v-1.03c17.572-11.78 19.578-46.9 14.322-72.633h-2.046c-5.3-3.57-17.882-.09-22.506 1.023v2.046c-9.253 13.265 9.2 24.375 1.023 40.92-4.156 8.406-15.657 17.65-23.529 22.506-3.928 2.423-9.9 2.172-12.276 6.138-3.923 5.324-1.561 20.243 2.046 24.552 5.852 3.665 18.206.457 25.575 2.046 27.868 6.01 58.272-2.609 84.909-3.069 2.493 4.055 4.345 5.232 11.253 5.115 3.143-2.135 9.184-2.12 14.322-2.046a16.044 16.044 0 0 0 1.023-5.115c1.683-4.922-1.548-21.626-3.069-28.644-4.055-18.706 1.541-41.067 6.138-52.173l34.782-18.414c6.1-4.374 10.4-11.907 18.414-14.322v19.437c-2.52 3.524-2.638 8.823-5.115 12.276-8.588 11.974-25.631 17.158-31.713 31.713-6.446 15.426-.761 36.209 0 53.2h2.046c3.927 2.552 15.575 1.158 21.483 1.023l1.023-1.023c1.569-13.414-6.122-33.634-1.023-46.035 5.63-13.691 23.7-15.587 31.713-26.6 8.225-11.306 8.872-36.021 5.115-53.2-2.327-10.639.85-22.152-2.046-30.69a535.323 535.323 0 0 0-75.7-5.115c-7.44 0-23.078-1.988-25.575 3.069v21.485l3.069 1.023c9.235 6.552 40.651 2.187 55.24 2.046Zm156.519 106.392c-16.662.37-36.981.262-52.173-3.069-6.853-1.5-13.305 2.1-16.368-3.069 9.9-10.912 11.652-56.479 7.161-77.748-1.284-6.082 1.082-12.952 2.046-17.391 2.121-9.765-.578-22.509-2.046-29.667-3.174-1.7-6.635-2.143-12.276-2.046-2.372 1.667-6.334 1.963-10.23 2.046-.928 8.259 1.446 22.746 0 29.667-2.6 12.445-2.046 28.805-2.046 43.989 0 11.223 3.671 25.847 0 34.782-6.026 14.668-29.519 13.231-33.759 24.552-3.183 4.449.759 19.6 4.092 21.483 10.76 6.644 38.341-4.024 52.173-1.023 45.978 9.974 112.319 3.19 163.68 3.069l1.023-1.023c1.011-7.694 3.571-14.467 2.046-22.506l-3.069-1.023c-3.935-2.466-14.611-1.023-20.46-1.023h-53.2V517.3c-1.682-2.534-1.149-9.106-1.023-13.3l1.023-1.023c13.281-1.545 27.516.588 38.874 2.046 7.941 1.019 21.918-1.067 31.713-1.023l1.023-1.023c.876-7.433 2.021-14.995 2.046-24.552-24.61-2.9-51.56-3.016-77.748-3.069-2.135-9.643-6.955-21.466-12.276-28.644-8.592-11.588-20.6-14.376-24.552-31.713h2.046c12.945-8.491 45.674 7.408 58.311-2.046 2.773-4.282 1.158-17.187 1.023-23.529-9.387-.671-20.917 2.4-31.713 0a132.955 132.955 0 0 0-56.265 0v6.138c-4.862 7.638 4.318 34.2 7.161 38.874a113.772 113.772 0 0 0 16.368 20.46l8.184 7.161c8.515 12.526 11.06 38.401 9.211 57.294Zm-349.866-43.989c-23.123-.022-45.269.013-69.564 0-1.747 2.788-2.594 2.555-3.069 7.161l7.161 19.437c1.487 1.239 17.554 2.915 21.483 2.046 19.766-4.374 46.008 2.267 66.5-2.046 5.241-14.976 1.525-37.687 5.115-54.219 1.033-4.756-1.078-11 1.023-14.322 5.285-14.7 41.081-20.415 62.4-20.46v2.046c5.484 7.9 4.416 27.648 2.046 36.828-1.246 4.828.326 13.113 1.023 16.368 3.153 14.717-1.5 29.9 1.023 41.943h23.529l1.023-3.069c5.115-7.67.822-24.751 0-33.759l2.046-79.794c-11.975-7.071-35.087-9.062-52.173-5.115l-15.345 1.023c-21.037 5.413-41.348 14.886-49.1 33.759-4 9.742-1.523 19.512-4.092 31.713-1.089 5.142-1.111 13.698-1.029 20.46Zm417.383-61.38c25.306.085 52.907 4.4 73.656 0a25.667 25.667 0 0 0 1.023-8.184c2.646-3.966.356-11.59 0-16.368-23.649-1.526-54.942-2.4-74.679-1.023a18.432 18.432 0 0 1-3.069 4.092c-.073 8.725 2.046 14.244 3.069 21.483Zm110.484 2.046 41.943 1.023 1.023 1.023 1.023 13.3c-3.6 3.79-5.052 10.106-9.207 13.3-11.522 8.854-24.022 17.26-29.667 31.713l-2.046 63.426 1.023 1.023c6.927.467 15.247 1.014 23.529 1.023l1.023-1.023c.72-6.645 3.873-14.829 2.046-23.529-2.493-11.874-3.529-29.694 1.023-39.9 6.34-14.209 24.746-19.794 32.736-32.736 2.6-4.211 3.5-24.8 6.138-26.6 5.241-3.584 31.409-2.98 36.828 1.023h1.023c.863 12.929 0 26.163 0 39.9v20.46c-1.884 8.813-3.259 34.721-1.023 45.012a125.547 125.547 0 0 1 3.069 20.46h2.046c4.03 3.159 14.367 2.206 21.483 2.046v-2.046c3.932-6.233.037-29.937 0-37.851l1.023-57.288c1.931-9.175 1.989-26.633 0-35.8-1.889-8.713 1.3-17.8-3.069-23.529-3.478-3.015-19.744-3.535-26.6-2.046-8.443 1.835-26.41.974-35.8-1.023-13.36-2.84-23.6 2.052-36.828 2.046-9.8 0-24.771-3.889-31.713 1.023-4.01 5.752-1.495 18.126-1.025 25.57Zm-741.675 0c17.339-.779 34.276.939 52.173 1.023.886 24.032-19.249 28.9-29.667 43.989-13.671 19.8-15.155 54.737-9.207 82.863a25.668 25.668 0 0 0 8.184 1.023c6.028 3.924 42.991-1.634 50.127-3.069 6.253-1.258 11.424 2.83 16.368-1.023 4.278-4.633 4.614-16.247 3.069-23.529-16.844-1.952-35.757-.056-53.2 0l-1.023-1.023c-5.273-42.888 15.018-43.483 30.69-65.472 9.3-13.053 11.426-35.989 10.23-56.265l-4.092-4.092c-7.111 2.351-18.3.247-25.575 0l-56.26-1.023c-7.991-.014-13.861-1.213-20.46 0v10.23c4.135 6.16 4.231 32.895 2.046 42.966-3.728 17.178-4.777 41.764-1.023 59.334l-1.023 42.966 1.023 1.023c8.841.557 14.516-1.8 24.552-2.046 6.287-17.97 1.6-49.613-2.046-66.495-.914-4.228.457-10.664 1.023-13.3v-12.275a180.388 180.388 0 0 0 4.092-35.805Zm112.53-22.506c-1.585 1.073-4.179 1.054-7.161 1.023l-1.023 1.023c-1.4 16.388-1.156 37.584-1.023 55.242.351 46.458 1.93 77.359 32.736 93.093 13.336 6.811 35.441 5.532 51.15 2.046 8.474-1.88 21.353 1.874 24.552-5.115 3.3-4.225 3.189-13.017 3.069-20.46l-1.023-1.023c-23.229-2.809-49.74 3.476-71.61-2.046-13.145-22.259-18.79-62.044-12.276-95.139 2.96-1.023 7.851-1.084 12.276-1.023 3.8-2.416 14.547-.838 18.414 0l40.92 1.023v-2.046c3.015-4.365 2.185-14.251 2.046-21.483-12.632-7.159-41.937-6.737-59.334-3.069-10.252 2.162-20.428-2.068-31.712-2.046Zm543.213 42.966c-5.246 3.361-20.682 2.636-26.6 4.092-1.268 3.693-1.1 10.111-1.023 15.345 1.311 1.943 2.175 6.172 3.069 8.184 9.435 1.013 17.774-.252 25.575-2.046 6.512-1.5 14.542.666 18.414 2.046 30.346 10.815 18.364 42.661 24.552 75.7h4.092c4.009 2.694 16.187.941 20.46 0v-7.159c4.326-6.746-.4-22.818-1.023-29.667-.839-9.274.728-17.928-2.046-25.575-9.369-25.836-29.295-41.539-65.469-40.92Zm-513.546 2.046c-.494 7.755-3.89 22.547 3.069 25.575 9.275 7.6 49.962 5.307 52.173-6.138-4.595-8.228 2.531-18.843-10.23-19.437-7.718 6.303-31.63.254-45.011 0Zm659.835 31.713c-.951 23.378-1 46.8-1.023 70.587h2.046c5.58 3.875 15.371 1.231 23.529 1.023v-2.046c2.842-4.484 2.183-14.705 2.046-21.483-.278-13.815-.887-30.671-1.023-46.035l-3.069-1.023c-5.554-3.753-14.671-1.242-22.505-1.023Zm-450.12 99.231c-1.207.821-1.72.791-4.092 1.023-1.747 2.788-2.594 2.556-3.069 7.161-4.02 6.23-.232 16.9-2.046 25.575-8.348 39.928 35.553 46.277 36.828 90.024-12.245 4.089-33.71 1.11-48.081 1.023v-2.046c-5.973-9.4-1.16-45.936-1.023-59.334-3.444-1.185-9.36-1.093-14.322-1.023-3.4 2.286-7.693 1.962-10.23 5.115-6.48 8.54 1.443 42.736-1.023 56.265-4.428.4-13.064-1.121-15.345 0-2.524 1.324-.7-.439-2.046 2.046-4.157 6.081 2.077 18.947 4.092 23.529 18.091 1.861 34.524-2.392 50.127 3.069.477 5.332 2.275 14.645 5.115 18.414 3.049 2 11.538 1.155 16.368 1.023 1.556-1.076 5.028-1.623 7.161-2.046v-7.161c-1.953-2.431-2.1-5.613-2.046-10.23h2.046c6.992-4.674 21.66-1.2 31.713-1.023l1.023-1.023c3.562-28.978-.235-58.116-12.276-74.679-6.179-8.5-17.143-14.126-21.483-24.552-5.486-13.18 2.568-33.564-1.023-49.1-4.495-1.693-9.654-2.103-16.367-2.05ZM242.773 570.5c-3.649 3.859-4.34 6.026-4.092 14.322l3.069 10.23c2.987 1.88 2.972 2.8 8.184 3.069 6.046 3.769 19.489 0 27.621 0 21.451 0 44.671 1.17 67.518 1.023v1.023c-4.162 3.2-6.062 9.215-10.23 12.276-11.783 8.656-26.76 13.256-34.782 25.575-12.6 19.356-10.966 62.845-10.23 90.024l1.023 1.023c7.315.458 14.285-.625 22.506-1.023 2.633-4.987 2.173-14.537 2.046-22.506-4.6-7.323 1.431-33.562 3.069-39.9 3.965-15.337 5.43-27.93 16.368-35.8 24.569-17.69 45.366-11.612 46.035-56.265l-1.023-1.023c-11.054-.242-26.57-3.646-38.874-1.023-12.781 2.725-37.348 2.747-50.127 0-15.128-3.253-34.167 1.65-48.081-1.025ZM84.208 744.411l23.529-1.023c10.217-40-3.059-95.181 2.046-140.151l15.345-1.023 2.046 131.967 22.506 1.019 1.023-1.023c4.652-40.258-.315-86.294-1.023-125.829h5.115c1.124-2.1 1.864-3.929 4.092-5.115 10.1-7.691 39.6-5.241 55.242-5.115 1.352-3.945 1.1-10.859 1.023-16.368-1.073-1.585-1.054-4.179-1.023-7.161l-3.069-1.023c-4.933-3.775-21.145-2.739-28.644-1.023-29.462 6.741-68.915-.727-98.208 5.115-3.626 9.872-2.671 55.091 0 67.518v34.782c.164 21.277-.136 43.413 0 64.453ZM845.32 603.237l-1.023-28.644c-2.334-1.253-2.3-1.676-6.138-2.046-7.932 6.11-42.98 3.069-57.288 3.069l-49.1 1.023c-20.256-4.472-76.572-8.869-96.162-2.046-1.747 15.306 4.093 34.435 14.322 40.92 16.549 10.492 41.132 9.631 49.1 28.644 13.13 31.315-6.684 75.766 4.092 108.438 8.076 1.027 16.011-.34 23.529-2.046 1.268-3.693 1.1-10.111 1.023-15.345-5.034-8-1.951-29.864 0-38.874 3.563-16.455-1.885-53.289-6.138-63.426-5.792-13.8-17.939-21.844-31.713-27.621-5.891-2.47-15.4-2.757-19.437-7.161h22.506c5.03 3.106 35.5 3.069 45.012 3.069h54.219c13.94 2.98 39.227 3.647 53.196 2.046Zm-340.659 59.334c-.031-19.6-.983-41.365-1.023-62.4l33.759-1.023v2.046c3.79 5.97 1.56 44.333-1.023 52.173-11.1 33.683-52.9 40.248-48.081 86.955h2.046c5.781 3.585 17.927-.616 25.575 1.023 17.357 3.719 47.014 3.758 64.449 0l27.621 1.023v-2.046c2.949-4.473 2.172-14.395 2.046-21.483l-3.069-1.023c-4.043-2.707-9.337-.754-15.345-2.046-19.752-4.246-48.175-.138-70.587 0v-2.046c14.762-10.15 35.894-40.184 40.92-60.357l1.023-45.012c.2-.9.212-7.343 1.023-9.207l4.092-3.069v-21.486h-2.046c-4.423-2.959-21.033-3.694-28.644-2.046-26.4 5.715-55.852.889-81.84 1.023-4.413 6.947-5.479 14.812-4.092 25.575h2.046c4.414 2.764 18.381 1.106 23.529 2.046l3.069 60.357 1.023 1.023c7.312.562 16.291.874 23.529 0Zm155.5 3.069a340.245 340.245 0 0 1-3.069 47.058c-1.169 8.371 1.694 23.988 2.046 32.736l3.069 1.023c5.11 3.58 13.594 1.365 20.46 1.023l1.023-3.069c4.156-6.591.035-21.949 0-29.667-.115-24.969 3.594-49.7-1.023-71.61h-2.046c-15.141-11.11-52.9 5.491-63.426-10.23-10.267-13.48 2.64-44.572-3.069-59.334-2.96-1.023-7.851-1.084-12.276-1.023-3.5 2.27-7.364.888-9.207 5.115-4.46 6.251-.129 18.464-2.046 27.621-2.337 11.163-2.191 31.427 3.069 38.874 2.413 3.417 8.185 5.27 11.253 8.184 3.811 3.619 6.98 9.249 12.276 11.253 10.793 4.086 29.058 2.241 42.962 2.046Zm159.588-45.012c-.911 7.5-.577 16.989 0 24.552-3.2 1.1-8.607 1.089-13.3 1.023-9.715-6.493-25.012 2.578-31.713 6.138-31.66 16.821-33.353 40.551-30.69 84.909l2.046 1.023c4.563 3.506 20.879 4.981 29.667 3.069 23.691-5.155 58.614 2.459 81.84-2.046.869-2.5 1.063-6.326 1.023-10.23 2.442-3.379.956-11.963-1.023-14.322-4.817-3.1-19.6-1.159-26.6-1.023-2.355 1.486-11.3 1.9-15.345 1.023-13.531-2.949-32.722-.85-48.081-1.023-.287-24.8 9.039-39.194 28.644-43.989 8.64-2.113 20.484.66 26.6 2.046 9.061 2.054 17.013.362 24.552-1.023 1.1-3.2 1.089-8.607 1.023-13.3-5.233-8.85.273-28.555-6.138-36.828-1.325-.9-2.523-.915-5.115-1.023-3.226 2.115-12.35 1.157-17.394 1.024Zm-658.816 32.736a113.336 113.336 0 0 0 34.782-2.046c39.691-8.843 49.411 21.911 49.1 55.242l-76.725 1.023c-1.88 2.987-2.8 2.972-3.069 8.184-2.529 3.927.961 12.242 2.046 16.368 6.714 3.446 20.725 2.046 30.69 2.046H266.3c1.332-2.473 1.843-2.9 2.046-7.161 6.06-9.044 3.757-36.54 1.023-47.058-7.72-29.7-18.968-47.473-49.1-54.219-8.819-1.974-14.9 2.913-24.552 2.046-16.038-1.441-24.365-1.763-34.782 5.115v20.46Zm5.115 38.874c12.137.232 48.371 3.008 56.265-3.069 2.773-4.282 1.158-17.187 1.023-23.529h-2.046c-6.748-4.429-41.879.074-53.2 1.023-2.561 4.09-3.223 7.74-3.069 15.345 1.372 2.037 1.133 6.657 1.027 10.23Zm732.468-22.506c-3.537 2.345-12.168 3.153-16.368 4.092-8.716 15.235-5.2 39.9-5.115 62.4l3.069 1.023c4.652 3.357 13.586 3.184 21.483 3.069 3.642-10.886 1.109-30.04 1.023-42.966 3.512-5.36 2.176-18.244 2.046-26.6l-1.023-1.023h-5.115Zm-256.773 6.138c-3.6 2.715-12.865 3.985-17.391 5.115a22 22 0 0 0-1.023 7.161c-1.939 2.984-1.022 10.635-1.023 15.345 0 13.263-.756 30.285 3.069 40.92 6.559.77 12.143 2.011 20.46 2.046l1.023-1.023c.889-18.4 6.867-50.09 0-67.518Zm-333.5 113.553c18.665 1.442 45.736-4.079 66.5 0v11.253c-3.305 5.315-1.014 32.251-1.023 40.92l-2.046 64.449c-2.677 12.358-4.386 29.767 0 40.92a18.725 18.725 0 0 0 6.138 1.023c7.61-5.107 13.152 3.987 18.414 2.046 8.119-9.273 7.167-30.154 12.276-41.943 12.875-29.706 53.981-75.6 100.254-66.495 2.755 6.161 3.142 13.965 3.069 23.529l-1.023 1.023c-23.869 1.686-48.724 25.427-56.265 43.989-4.079 10.041-4.253 29.656-4.092 42.966 5.769 1.957 16.055 1.1 23.529 1.023v-2.046c5.08-8.286.523-24.356 4.092-33.759 4.184-11.022 24.739-27.293 36.828-30.69l26.6-2.046-2.046-69.564C509 812.06 463.4 818.767 444.3 830.343c-8.867 5.375-16.613 12.43-24.552 18.414-8.148 6.142-17.507 14.578-20.46 25.575h-2.046v-25.575c3.467-5.589 1.023-21.809 1.023-29.667v-27.621l5.115-5.115c1.088-4.709-1.955-14.122-2.046-20.46l-3.069-1.023c-11.14-8.023-50.379-4.188-64.449-1.023-8.042 1.809-18.1-1.119-23.529 3.069-3.06 4.655-2.17 15.151-2.042 22.506Zm357.029 166.749 22.506 3.069c2.841-8.448 1.107-23.426 1.023-33.759-3.828-6.217-.352-18.77-2.046-26.6-4.984-23.027.411-46.376 14.322-54.219l15.345-2.046 12.278-12.274c17.624-11.522 30.639-10.778 30.69-40.92 9.972.039 19.948 1.586 28.644 3.069 5.708.974 20.029-.885 25.575-2.046 8.912-1.865 17.107 2.6 23.529 4.092 10.529 2.451 22.907-1.361 30.69-3.069 12.049-2.644 23.5 2.182 31.713 4.092 12.792 2.974 22.96-4.944 34.782-1.023v-12.276c-1.576-2.365-1.145-8.292-1.023-12.276l-1.023-1.023a205.418 205.418 0 0 0-30.69-1.023l-8.184 1.023c-25.6-4.834-52.9-6.138-83.886-6.138h-49.1c-7.875-1.7-16.942-2-26.6-2.046v2.046c-7.118 10.652-1.622 31.91-10.23 40.92-4.383 4.587-12.119 5.439-18.414 8.184-14.984 6.535-35.718 17.475-41.943 32.736-3.96 9.709-3.417 32.866-1.023 43.989v20.46c2.962 13.726 2.775 32.47 3.065 47.058Zm-128.9-192.324c-16.44-.419-28.1 1.874-43.989 4.092-4.66.65-16.969-1.072-21.483-2.046l-39.9-2.046v2.046c-3.381 3.553-3 17.835 0 21.483 8.118 5.379 23.762.7 34.782 3.069 26 5.6 42.5-1.916 69.564-2.046a22 22 0 0 0 1.023-7.161c2.599-3.855.619-13.186.005-17.391Zm-416.359 99.231c-3.33 29.094-2.307 60.876-1.023 91.047h2.046c6.563 4.165 21.456.009 29.667 0 29.79-.031 58.391-1.76 82.863-5.115l1.023-24.552c-4.458-1.523-12.349-1.1-18.414-1.023-8.418 5.261-58.029 4.142-73.656 4.092.269-23.9-1.25-51.154 3.069-70.587 1.916-8.623.152-19.255-5.115-21.483-4.744-2.945-12.076 1.1-16.368 2.046-5.051 1.117-11.969-2.6-18.414-1.023-14.659 3.588-25.173 9.948-34.782 18.414-2.388 2.1-14.019 11.688-15.345 10.23-2.8-4.487-1.02-17.009-1.023-23.529l-1.023-50.127c13.775-1.607 29.939 3.224 45.012 0 18.6-3.979 44.631-3.8 62.4 0v4.092c4.216 6.515.339 24.3 0 31.713 6.034 2.045 16.794 1.1 24.552 1.023 2.2-18.157 1.044-40.288 1.023-60.357-9.462-3.2-22.153.443-33.759-2.046-16.252-3.486-44.067-3.53-60.357 0-8.126 1.761-21.041-.034-27.621-1.023-13.246-1.991-27.7 2.781-37.851 5.115-4.836 12.782 3.925 24.906 1.023 38.874-3.54 17.039-2.533 42.157 1.023 58.311 2.95 13.4-.5 28.124 2.046 39.9 2.393 11.047-5.146 33.915 3.069 38.874 4.859 3.786 14.936 5.611 22.506 6.138v-2.046c5.346-7.965 1.191-27.233 4.092-36.828 8.208-27.146 23.7-50.342 59.337-50.13Zm463.419-98.208c-3.087 2.357-10.09 3.217-14.322 4.092-1.747 2.788-2.594 2.556-3.069 7.161-4.2 6.706 3.439 29.4 1.023 40.92-5.115 24.4-4.839 71.66 4.092 92.07 2.5 5.712 7.3 11.368 10.23 17.391h-13.3c-4.273 2.686-14.325.463-20.46 1.023-13.315 1.216-27.116.14-41.943 0-1.352 3.945-1.1 10.859-1.023 16.368.983 1.45 1 3.349 1.023 6.138 2.334 1.253 2.3 1.676 6.138 2.046 5.148 3.266 20.265 1.024 27.621 1.023 22.525 0 46.738-4.535 67.518 0 8.862 1.934 26.033.509 30.69-3.069h1.023c1.079-8.353-.316-15.918-2.046-23.529-6.393-2.764-10.187.833-16.368-1.023-4.624-1.389-9.106-6.079-12.276-9.207-15.88-15.672-12.859-27.439-18.414-53.2-4.526-20.988 3.077-47.322 3.069-68.541 0-10.1.428-25.064-6.138-28.644-1.1-.765-.966-.611-3.068-1.019ZM159.91 863.079c4.827-.53 10.108-2.125 14.322-3.069 6.113-1.369 12.3 1.143 16.368 2.046 9.718 2.159 32.43-1.566 39.9-4.092 1.351-19.094-.1-39.5 0-59.334.054-11.075 3.112-20.788 1.023-31.713h-2.046c-3.76-2.475-16.681-.043-21.483 1.023v6.138c-3.916 6.218-.14 48.617 0 61.38-5.769 1.957-16.055 1.1-23.529 1.023-5.443-3.66-18.786-.115-23.529 1.023v15.345c-1.371 2.037-1.136 6.657-1.026 10.23Zm459.327 38.874c8.036.568 14.328.05 23.529 0 4.156-35.565-1.9-72.674-2.046-108.438 22.426-.441 48.016-1.5 69.564 1.023l1.023-1.023c.37-7.585.885-16.123 0-23.529-11.165-.717-25.147-1.023-37.851-1.023h-18.414c-11.818-2.557-26.382-2.994-39.9-3.069-1.253 2.334-1.676 2.3-2.046 6.138-7.587 11.237 4.033 24.009 1.023 37.851-6.325 29.095 1.617 65.953 5.118 92.07ZM262.21 768.963c-2.029 4.467-3.04 8.353-3.069 15.345-.068 16.3 2.365 31.967 9.207 41.943 10.1 14.727 35.411 22.223 42.966 39.9 4.186 9.793 8.555 39.684 5.115 55.242-.662 3-3.895 12.513-3.069 15.345.335 1.147 2.369 1.9 3.069 4.092-2.939 1.145-1.884.178-3.069 3.069h2.046c4.817 3.1 19.6 1.159 26.6 1.023v-2.046c5.685-7.451.168-24.153-1.023-31.713v-29.67c-3.415-14.473-7.532-29.589-15.345-39.9-9.457-12.478-29.344-15.983-37.851-29.667-6.54-10.52-.435-29.648-3.069-42.966h-9.207c-3.434 2.289-8.86.348-13.301.003Zm12.276 102.3c-2.909 1.9-9.7 2.359-13.3 3.069l-1.023 3.069c-6.317 8.321-3.18 51.207-3.069 66.5 5.769 1.957 16.055 1.1 23.529 1.023 1.045-.823.28-.363 2.046-1.023v-8.184c2.641-4.274.115-19.268-1.023-24.552l2.046-37.851-1.023-1.023Zm-53.2 9.207c-12.453 8.526-47.371-5.9-59.334 3.069-2.82 4.369-2.152 14.976-2.046 21.483l1.023 1.023c19.347.85 44.091 1.365 63.426 0 1.4-2.6 1.961-3.584 2.046-8.184 2-3.049 1.155-11.538 1.023-16.368l-1.023-1.023h-5.111Z" fill-rule="evenodd"/></svg>