<svg xmlns="http://www.w3.org/2000/svg" viewBox="0 0 1452 1900"><path d="M706.746.031C812-1.9 790.792 111.652 774.926 190.5l-7.018 78.2-19.051 76.189-11.029 144.357q-4.51 53.127-9.024 106.264c-20.722 124-28.376 236.612-89.236 319.794-20.5 28.021-36.439 66.871-72.191 79.2-43.423 14.969-112.87-10.891-129.342-35.087L424 925.329 395.923 873.2l-38.1-218.543q-4.51-45.108-9.024-90.224c-12.55-60.939-40.479-122.225-28.074-197.49 10-60.7-41.2-92.939-24.064-154.384 5.221-18.716 19.112-30.908 29.077-45.112 24.013-.57 55.1-4.212 70.186 7.018 16.631 12.378 41.011 65.985 46.122 90.224l-4.01 84.209c5.256 32.17-.713 72.39 5.013 107.266 12.308 74.978 18.339 156.057 35.093 227.565 8.712 37.187 18.724 150.987 54.143 153.381 52.793-26.919 44.02-115.406 58.154-181.45 30.353-141.829 26.749-326.863 52.138-471.171 11.811-67.132-7.452-105.319 25.066-154.383 5.183-7.82 9.745-18.595 18.048-23.057ZM977.463 96.27c61.447-1.278 88.4 64.761 75.2 130.324-4.01 19.912-13.39 34.693-17.04 52.129l-9.03 84.21q-26.565 123.294-53.138 246.612c-23.3 92.6-46.668 185.836-71.189 273.68l-12.031 66.164c-19.911 71.331-43.609 155.851-96.255 195.481-27.889 21-92.819 56.09-147.39 47.12-34.545-5.67-79.829-18.26-119.316-9.02-85.19 19.93-143.866 69.86-190.5 128.32-22.108 27.71-66.229 68.97-55.145 120.3h1c22.3-12.11 30.087-35.85 45.12-55.14 16.8-21.55 44.961-32.87 68.18-48.12q21.555-15.03 43.114-30.07 31.08-6.525 62.165-13.04c131.513-32.92 247.639 8.43 299.793 93.23 15.087 24.54 39.247 60.15 31.083 105.27-12.668 69.99-49.07 126.04-108.287 149.37-33.6 13.24-80.156 7.66-115.305 0l-64.17-7.02c-33.552-10.15-73.2-63.62-82.218-99.25-17.173-67.87 60.52-130.92 120.319-93.23 42.686 26.9-35.7 95.24 33.087 110.28 18.764 4.1 38.315-2.69 51.136-8.02 66.09-27.51 35.349-99.54-14.037-121.31-23.647-10.42-86.179-32.05-120.319-26.06-102.73 18.01-191.773 119.92-139.369 246.61 21.366 51.65 79.627 77.82 135.358 95.24 28.975 9.05 65.14 11.54 97.258 17.04l58.154-2c28.412-4.57 52.722-1.68 78.207-8.02 77.782-19.37 144.627-74.9 174.462-142.36 19.508-44.11 25.82-99.49 45.119-145.36 12.957-30.81 33.607-58.38 47.127-90.22 41.92-98.78 74.46-201.53 136.36-279.7q57.645-59.64 115.3-119.294c16.43-20.352 35.79-46.235 61.17-57.141 39.34-16.912 100.28-4.576 109.29 31.077 9.4 37.2-34.92 70.748-50.14 90.228q-15.54 19.035-31.08 38.09c-17.5 12.92-38.75 17.22-52.14 34.09-33.83 42.64-67.23 86.39-95.25 134.33-23.5 40.21-28.79 94.1-47.12 140.35q-18.06 30.57-36.1 61.15c-27.45 64.39-36.08 144.4-64.17 208.52-39.21 89.5-118.99 155.54-200.531 203.5-52.8 31.06-142.564 24.55-213.565 36.09q-32.082 2.01-64.17 4.01c-10.919 3.29-21.716 19.91-40.106 14.04q-37.6-22.05-75.2-44.11l-50.133-19.05q-28.071-20.055-56.149-40.1-20.552-8.025-41.108-16.04l-29.077-36.09q-17.044-9.015-34.091-18.04-20.051-29.07-40.106-58.15c-14.121-20.09-35.054-38.18-45.119-61.15-26.57-60.62-34.4-139.32-47.125-213.53q-1.5-96.735-3.008-193.48c2.736-14.66 11.559-31.52 8.021-51.13Q118.19 1028.6 93.122 909.29c-11.987-54.749-12.169-116.762-25.067-167.416l-38.1-172.429L.877 481.226c-6-31.519 20.853-65.323 40.106-73.181 23.958-9.779 40.544 9.27 49.13 22.054 25.662 38.211 29.984 91.028 44.116 142.354 39.734 144.305 71.739 298.109 102.271 453.127 12.282 62.35 4.908 126.09 11.029 192.48 75.679-47.8 123.377-115.59 225.6-139.35 49.223-11.44 110.364-6.48 167.444-6.01 22.007.18 48.174 3.16 65.172-4.01 18.917-7.99 34.9-30.4 43.114-49.13 31.388-71.533 32.977-164.325 51.136-251.622 30.61-147.156 52.024-304.488 87.231-446.107 17.3-69.61 14.8-157.61 53.14-206.513 8.734-11.138 24.427-11.643 37.097-19.048Z" fill-rule="evenodd"/></svg>