<?xml version="1.0" standalone="no"?><svg xmlns="http://www.w3.org/2000/svg" viewBox="0 0 1440 320"><path fill="000000" fill-opacity="1" d="M0,128L30,122.7C60,117,120,107,180,90.7C240,75,300,53,360,85.3C420,117,480,203,540,224C600,245,660,203,720,160C780,117,840,75,900,74.7C960,75,1020,117,1080,122.7C1140,128,1200,96,1260,80C1320,64,1380,64,1410,64L1440,64L1440,0L1410,0C1380,0,1320,0,1260,0C1200,0,1140,0,1080,0C1020,0,960,0,900,0C840,0,780,0,720,0C660,0,600,0,540,0C480,0,420,0,360,0C300,0,240,0,180,0C120,0,60,0,30,0L0,0Z"></path></svg>