<svg xmlns="http://www.w3.org/2000/svg" viewBox="0 0 1962.969 1889.969"><path d="M448.687.123c7.69-.271 16.79-.355 21.623 1.966l-2.948 44.236-4.915 3.932-205.423 12.779c-10.1 1.6-54.506 2.423-57.99-1.966l-3.931-41.287 6.88-6.881Zm935.712 296.871c50.14.266 99.03 4.224 143.5-3.932 5.25-20.776 2.23-53.415-.99-72.743-4.41-26.543 14.04-74.637 23.59-90.438 16.81-27.792 56.65-34.061 72.74-60.947-17.33-1.984-38.12 2.413-53.08 4.915h-84.53q-.975 93.378-1.96 186.774c-.99.327-1.97.655-2.95.983-5.87 2.475-41.65 1.876-45.21-2.95l-.99-37.354V103.34c.01-12.709 2.27-24.725-1.96-33.423l-45.22 2.952c-29.98 2.588-70.02-9.61-94.35 2.949.46 69.253 11.5 153.1-17.7 200.536-14.95 24.3-48.11 46.648-78.63 55.049-13.58 3.739-32.98 4.738-44.23 7.864l-62.9.983c-46.59 7.2-109.14 7.717-152.348 0-8.482-12.98-7.7-51.135-3.931-68.811 13.753-64.581 33.539-84.447 97.309-98.3.32-.655.65-1.311.98-1.966-.29-18.027-8.86-42.8-1.97-58 11.01-2.02 38.25-4.341 47.18.983 4.66 22.813 10.87 88.418 4.92 107.149-.66 1.31-1.31 2.621-1.97 3.932h-49.14c-33.06 5.86-48.7 25.014-49.15 62.913.66.328 1.31.655 1.97.983 23.04 6.562 104.7 7.845 125.81-1.966l-3.93-189.723c-.13-14.664-2.32-60.646 4.91-65.862 13.65-6.32 96.26-3.016 107.13 2.949 1.81 12.291 6.09 34.236.99 45.219-20.52-.3-43.63-6.872-62.91 0l3.93 205.451c.66.328 1.31.655 1.97.983 26.61-5.163 56.67-13.928 68.8-33.423 16.86-27.074 23.81-108.413 16.71-154.334q-.495-28.5-.98-57.015c3.5-12.472 13.72-20.74 20.64-30.474q18.18 3.932 36.37 7.864h37.35c41.62 0 79.41-2.556 113.03-8.847l116.96-.986c26.41-.012 107.35-9.7 119.91-2.949 3.44 15.728 8.91 39.776 3.93 59.964-16.91 6.861-21.83 18.471-35.38 27.524-47.38 31.659-71.07 36.464-82.56 106.166-6.3 38.162 11.92 108.208.98 141.555-10.03-.409-15.22 2.295-25.55 3.932l-52.1.983c-33.48 5.154-102.98 6.465-139.57.983-21.97-3.293-54.36 9.054-67.82 0-2.3-16.661-11.41-24.612-12.77-40.3l2.94-1.966c26.28-13.327 43.73-3.4 53.08-36.371q-.495-23.1-.98-46.2 3.435-38.334 6.88-76.676.495-14.251.98-28.507c3.92-6.392 15.16-5.8 23.59-7.864 5-1.224 11.63-4.245 17.69-1.966l4.92 4.915c7.43 27.954.31 71.418-3.93 99.285-4.37 28.669 1.02 58.766 0 85.517ZM318.946 137.745c1.743 22.037 11.272 108.639.983 127.793l-52.093-1.969-58.973.983c-14.031.184-32.317 5.593-38.333-3.932-5.876-6.334-7.486-37.342-5.9-46.2 28.649-9.929 73.914 1.479 104.186-3.932l-6.88-70.778-102.22 4.915c-11.136 73.665-51.942 65.991-88.46 108.132-5.168 5.964-25.56 33.641-14.743 46.2h34.4l61.921 1.966 71.751-7.864c7.614 5.853 13.072 39.315 7.863 50.134-28.331 4.128-60.744 4.665-91.408 8.847l-47.171-1.963-87.48 1.966c-6.037-14.509-8.119-35.146-4.914-50.134l1.966-30.473c4.988-19.53 21.254-41.909 35.384-53.083 23.512-18.594 58.633-29.232 67.819-61.93 5.708-20.321 9.047-54.6 4.914-80.608-2.937-18.481-11.972-47.507-1.966-62.913 10.676-3.065 37.746-5.994 46.2-.983 5.158 20.534-2.791 55.838 5.9 77.658q.984 1.474 1.966 2.949c36.181.08 71.02-1.042 103.2-5.9l116.964.983c11.063-1.327 70.273-8.02 70.767-7.864l3.932 1.966c3.979 13.78 1.182 32.031 3.931 50.134 7.981 52.548 10.331 144.741-14.743 178.909-20.587 28.055-53.012 34.593-96.323 41.287-22.61 3.5-57.142 9.632-76.665-.983-2.284-10.562-6.52-39.615 0-44.236h37.348c35.633-5.724 93.158-4.185 102.22-35.388l.983-40.3.983-40.3-1.966-52.1ZM544.027 11.919l6.88 3.932 7.863 225.111 2.949-.983c32.75-30.7 62.29-63.914 72.733-116.979 2.8-14.218 2.515-97.159 3.932-98.3 14.835-6.327 33.42-3.551 45.213 0l21.623-.983 57.007 2.952 70.768-4.915c2.343 12.415-1.234 31.757-3.926 45.215-37.048 23.347-107.5-5.157-141.541 10.812-2.115 73.586-24.389 115.281-55.041 158.266-12.322 17.279-38.927 30.337-44.23 53.083h7.863c39.343-14.427 107.41-.435 152.347 0 15.656.152 49.666-7.27 55.042 0 4.622 9.013 4 35.933 1.965 46.2-17.535 5.717-49.815 6.1-70.767 2.949-43.818-6.59-102.873-6.013-143.5.983-22.059 3.8-68.012 3.054-83.545-3.932l3.932-62.913-1.966-40.3c-5.121-42.782.908-86.884-3.932-125.826-2.257-18.163-6.965-76.006-.983-89.455 12.383-1.267 30.038.01 39.314-4.917Zm421.662 13.762 22.6 5.9c19.12 2.608 78.28-15.056 89.44 1.966 4.69 10.846.34 39.825-3.93 47.185-28.44 2.329-64.48-3.683-95.34 1.966q-.48 22.608-.98 45.219 1.47 18.184 2.95 36.372c-.98.327-1.97.655-2.95.983-8.23 3.434-34.165 6.817-41.281 3.932l-3.931-1.966c-6.787-27.106-1.755-64.3-5.9-93.387-1.16-8.145-5.624-27.948-.983-35.389 6.385-10.227 29.505-6.78 40.305-12.781Zm-135.642 76.676c14.372-.454 46.224-3.605 52.093 4.915 5.938 9.442-3.806 11.725-.983 23.592 10.249 43.087-1.775 102.373 3.931 149.419 2.027 16.711 5.374 44.617-.983 57.015h-44.23l-.982-2.949q-.984-21.134-1.966-42.27l-2.949-44.236c3.375-25.19 7.431-62.593.983-87.488-18.831-.88-46.948-7.652-65.853 0l-2.949 1.966v111.081c-14.735 1.073-38.484 7.64-47.178 3.932l1.965-126.81c2.233-14.779-3.136-31.717 1.966-41.286Zm1011.392 267.381c10.27-.283 14.11 2.012 19.65 5.9.34 15.17-.26 36.6-5.89 47.185-28.55 6.773-55.23 33.109-62.91 60.947l-7.86 159.249v63.9c-9.57 4.32-40.62 8.72-49.14 4.915-4.74-22.93-4.86-57.353-.99-82.574q-1.47-34.893-2.95-69.794c4.68-27.816 3.25-64.763 9.83-93.387 3.48-15.15 10.37-27.233 14.75-40.3-12.74-1.8-46.27-3.478-57.99 1.966.84 72.382-6.25 125.587-38.34 166.13q-31.44 28.012-62.9 56.032v2.949c12.2 1.382 68.58 2.478 72.73 5.9 9.95 6.5 4.74 36.666 0 44.236-22.47 8.655-55.07 2.705-84.53 2.949-50.2.415-102.41 1.756-151.36 1.966-24.2.1-64.91 13.922-87.48.983-7.03-80.791 33.48-144.232 112.05-125.826 4.87 10.15 12.64 35.2 1.97 42.269-27.53 10.354-50.22 5.689-60.94 32.44.33.655.65 1.311.98 1.966 30.79-4.5 72.62 2.186 104.19-4.915-.62-69.467 4.91-128.994 4.91-198.57 0-14.34-3.09-65.733 3.93-70.777 8.69-4.789 41.37-8.132 46.2 0 7.11 11.936.98 44.017.98 60.947v100.257c-2.93 19.624-2.59 48.23 1.97 65.862h.98c35.58-25.315 70.54-53.676 81.58-103.217 8.66-38.867 1.79-94.875 7.86-128.775 1.97-1.638 3.93-3.277 5.9-4.915l143.5-3.932c13.97-2.055 27.81 3.371 39.32-1.966Zm-572.04 1.966c6.32-.24 12.02.154 15.72 1.966q-.975 17.2-1.96 34.4c5.62 34.969 2.6 76.708-11.8 100.268-16.94 27.739-48.96 43.487-61.92 73.727-12.93 30.187-1.05 73.1-7.86 110.1-.98.327-1.97.655-2.95.983-9.02 3.815-36.35 4.265-43.25.983-4.97-37.371-8.62-102.272 7.87-130.742 15.78-27.252 44.65-42.914 60.93-69.794 4.3-7.1 21.87-55.089 8.85-64.879-8.17 2.243-92 3.039-94.36 1.966q-.48-22.608-.98-45.219c19.2-22.087 100.72-1.36 131.71-13.759Zm87.47 3.932 10.82.983c7.63 18.06 6.6 98.2 2.94 120.911-.65.328-1.31.655-1.96.983-12.11-3.813-29.7.272-43.25-2.949-5.96-13.556-8.63-102.937-2.95-115.013Zm-534.685.983c37.938 3.5 81.775 4.915 125.809 4.915h49.146c23.79-3.569 59.71-6.612 85.51-1.966 3.98 13.66 1.33 40.193-3.93 49.151l-163.161 3.932 1.965 1.966 29.487 30.473c34.489 43.306 68.789 66.549 68.8 146.47.01 20.421-.2 78.887-10.81 85.523-14.33 7.487-45.219-1.9-63.886.983-12.755 1.969-93.763 2.465-102.22-3.932-6.268-4.741-7.4-15.921-9.829-24.576-2.221-7.911-6.879-16.918-2.949-25.558 13.722-2.3 29.334 2.009 42.264 3.932 16.6 2.469 37.555-2.709 54.059 0 9.2 1.51 30.4 3.219 36.367-1.966l.982-36.372c-.054-60.637-30.113-86.423-57.007-119.928-10.551-13.145-23.234-18-27.521-38.338l-1.965-.983-1.966.983c5.579 160.163-67.235 181.456-218.2 170.062q-.49-.983-.983-1.966c-2.157-10.8-5.468-35.35-.983-46.2l1.966-2.949c77.514.144 138.425 19.044 165.125-48.168 6.008-15.123 10.727-43.651 6.88-66.845-2.332-14.06-14.665-63.347-11.794-71.76 2.308-4.728 4.423-4.427 8.844-6.883Zm629.045 1.966c16.55 3.4 9.23 16.219 11.8 33.422 2.48 16.642-.17 138.376-4.92 145.487-19.67 5.04-46.02-.817-67.82 2.949-39.8 6.876-71.42 27.854-81.58 62.913-4.54 15.668 3.09 73.834 0 77.659-7.48 2.933-38.33 2.284-45.21-.983-7.53-68.783-12.35-106.106 31.45-144.5 11.41-10 19.75-22.545 35.39-28.507q18.66-4.916 37.35-9.831c14.75-2.515 29.43 1.016 41.28-3.932.98-.655 1.96-1.311 2.95-1.966-1.15-31.413.97-60.546.98-91.421 0-10.545-3.46-32.049 1.96-36.371l36.37-4.919Zm-1054.635 7.864 8.846.983 3.932 4.915c7.464 28.048-6.619 52.715-1.966 83.557q.49 35.385.983 70.777c15.585 103.556-23.113 142.88-104.186 157.288-15.225 2.705-81.539 5.315-92.391-.983-1.049-12.078-.669-33.376 4.914-42.27 47.725-4.016 136.935-6.138 145.467-48.168l-1.966-49.151q-.49-56.026-.983-112.064c0-16.722-4.6-52.091 5.9-58.981Zm315.506.983c11.8-.317 61.373.679 63.888 3.932 4.65 8.438-1.03 41.534-5.9 49.151l-57.005-2.946-37.349 6.881-42.265.983.983 35.389 2.949.983c34.461 13.164 107.954-9.736 134.655 3.929 1.814 11.013.185 39.26-4.914 48.168-22.974.982-54.319 6.082-81.58 1.966-14.943-2.257-44.714-5.13-56.024.983-5.361 35.072-23.628 63.393-46.2 81.59-8.175 6.592-21.939 14.9-25.555 25.559h1.966c22.448 8.587 67.307 2.354 89.443-.983 28.907-4.359 62.853.771 88.459 4.915 10.695 1.73 22.184-1.716 30.47 1.966l9.829 38.338q-.984.982-1.966 1.966l-27.515 8.847-67.819-3.932c-45.038.015-94.607 3.014-141.536 1.966l-22.606.983c-3.442 1.924-2.161 7.6-6.88 8.847l-27.521-1.966c-7.161 1.732-16.041 6.106-23.589 2.949l-2.949-221.179c3.92-26.2-7.022-65.022 3.932-85.523 13.583-2.013 30.65-5.639 45.212-2.949 6.422 18.512 3.18 60.293 0 81.591l.983 56.032 2.949 88.471c42.991-32.449 66.438-59.315 76.665-125.826l-3.931-100.268c9.885-2.308 15.562-6.153 26.537-7.864 34.212-5.334 73.869 10.242 104.184-2.949Zm-395.12 4.915 9.829.983c10.172 4.526 17.166 82.742 10.812 94.37-13.29 1.189-59.518-9.909-68.8 2.949l1.966 66.845c16.659-.194 62.584-3.121 73.716 1.966 2.07 12.521 3.132 39.412-1.966 48.168l-66.836 2.949-3.932 12.779c-12.474 2.486-36.116 7.545-46.2 2.949-8.17-36.787-1.079-79.582-7.863-121.894-2.744-17.113-9.582-42.3-2.949-60.947 18.448-8.279 48.8-2.378 69.785-8.847-.327-12.935-3.926-27.088.983-35.389Zm-164.142 6.881c6.482-.3 9.428.022 11.795 3.932 3.69 6.685 8.6 61.76 4.914 70.778l-1.965 2.949c-14.33-1.043-31.943 8.521-43.247 5.9l-3.932-1.966c-2.651-14-6.9-65.966-2.948-74.71Zm982.891 57.015c19.32-.413 37.83.514 52.09 5.9.6 13.419 1.17 38.656-4.92 49.151-24.73-.622-54.59-9.039-75.68 1.966q-.975 58.484-1.96 116.979c2.58 17.4 8.47 54.121.98 70.778l-44.23-3.932c-8.21-39.228-9.91-100.481-4.92-142.538 3.85-32.355-7.83-52.779-1.96-83.557 24.83-17.001 54.64-3.178 80.6-14.747Zm-976.01 96.336 5.9.983 3.931 1.966c7.558 32.941-3.364 73.8.983 110.1 1.515 12.646 6.442 35.109 1.966 45.219-18.308.172-32.655 9.3-46.195 7.864-11.949-26.354-9.265-80.47-8.846-113.047.187-14.606-1.807-38.664 3.931-45.219 8.959-6.686 27.473-3.2 38.33-7.866Zm1077.24 461.04c2-38.626-3.04-89.458-21.62-116q-13.275-12.777-26.54-25.558c-20.34-25.354-41.86-62.76-32.43-114.03 29.7-13.4 77.48-7.065 114.99-.983 18.68 3.028 45.17-5.474 57.99 1.966.21 15.231 1.07 34.044-1.96 46.2-38.01 10.766-78.32-8.368-117.95 1.966-.33.983-.65 1.966-.98 2.949 5.57 30.216 34.58 44.179 50.13 64.879 11.16 14.864 13.98 35.176 23.58 52.1l35.39-1.966 57.01 5.9c18.04-.539 44.34-5.059 58.97 2.949.41 16.1.44 37.98-5.9 48.169q-30.96.975-61.92 1.97c-22.38-3.22-60.66-11.2-79.61-.99-.33 10.68-.44 22.51 2.95 29.49h112.04c11.37 1.75 32.83-2.82 38.34 4.92 4.3 10.14-1.45 39.13-5.9 46.2q-61.425.975-122.86 1.97c-68.89 0-133.07 2.48-195.6-6.89-28.15-4.21-93.06 8.13-109.1.99-2.47-10.92-10.35-31.78-5.89-43.26 9.02-21.35 59.78-13 68.8-56.027q-.99-26.048-1.97-52.1a573.716 573.716 0 0 1 2.95-91.421c2.32-19.431-4.59-47.859 1.97-60.947 9.35-1.194 36.48-9.456 42.26-1.966 9.29 18.09 5.26 56.321 1.97 77.658q.975 44.722 1.96 89.455c4.39 29.237-8.7 65.268-17.69 84.538h1.97q19.155 1.47 38.33 2.95Zm691.95-265.419 7.87.983q2.94 3.439 5.89 6.881c6.1 23.208-4.85 51.651-4.91 76.675v103.217c2.8 18.833 5.96 42.8 2.95 62.913-3.19 21.26 4.4 49.54-3.93 65.86-14.95.21-33.33 1-45.22-1.96-11.28-25.97 2.52-60.63-1.96-90.441-6.93-46.065-9.43-117.281-.98-162.2 2.03-10.81-.38-52.53 3.93-56.032Zm-1107.708 1.969c42.34-.357 166.388-3.874 192.648 10.813 3.96 13.541.33 33.742 2.95 51.117 5.42 36.032 9.97 83.157-8.85 109.115-15.81 21.807-54.959 30.859-63.888 58-9.255 28.13 11.326 66.15.983 89.45-10.93 1.33-37.435 3.84-47.178-1.96-3.736-36.81-12.318-85.85 5.9-113.048 27.648-41.278 76.126-37 65.856-115.014-.66-.327-1.31-.655-1.97-.983-15.828 11.765-29.659 26.057-47.177 36.372l-54.059 27.525q-4.914 11.3-9.828 22.609c-5.77 20.985-2.752 87.989.982 112.069 1.352 8.71 5.175 23.75 1.966 32.43-.655.99-1.31 1.97-1.966 2.95-16.484-.19-27.829 3.55-41.281 4.92q-5.4-5.415-10.812-10.81c-44.742 2.62-88.98 8.84-135.638 8.84-28.913.01-56.139-7.04-79.613-4.91-6.548-9.38-11.4-40.8-3.932-54.07 21.547-1.99 66.745-39.377 71.751-59.962 2.394-9.847 1.149-33.1-2.949-38.338l-5.9-4.915c-2.08-6.6 3.746-31.369 5.9-33.423 9.251-5.492 38.483-7.436 48.161-1.966 11.788 61.1 3.037 110.924-28.5 143.524v.98c22.758 3.05 50.027-.99 70.767-3.93h61.922c-.035-44.857-12.343-116.208 16.709-139.591 18.39-14.8 107.007-50.781 104.186-73.726-32.563-2.5-88.209 7.774-114.015-5.9v-43.256Zm-118.932 1.963c28.873-.667 69.958-1 84.529 13.762.094 51.123-3.231 101.472-2.949 152.368.135 24.447 8.607 58.5-2.949 77.657h-44.231c-8.394-14.68-6.187-27.883-2.948-48.167l-2.949-54.066c-1.239-8.35 1.8-15.149 2.949-19.66 3.95-15.476-3-57.816-6.88-69.794-45.41-.543-114.285 12.6-124.827 42.27l-1.966 50.133c-4.137 27.8-1.174 56.815-6.88 81.591-32.768 11.763-88.173-3.051-125.809 2.953-16.644 2.65-39.336 1.54-49.144-3.936-4.348-14.244-11.672-26.624-13.761-43.253l6.88-6.881 57.991.983 51.11-2.949c8.541 1.016 20.6 3.068 27.52 0-.677-114.411 14.273-138.981 102.221-166.13Zm681.138 0c42.7 5.134 91.24.283 131.71 4.915v1.966c4.14 8.739 2.29 35.775 0 46.2-18.85 8.42-54.48 3.638-78.63 0h-66.84c-3.28-8.7-8.66-33.757-4.91-43.253 3.812-7.891 10.452-6.407 18.672-9.828Zm305.68.983 82.56 2.949c24.12 3.62 57.49-7.431 76.67 2.949 11.67 61.794 1.96 150.2 1.96 219.213 0 21.343 5.51 76.063 0 88.473-15.98.36-34.25 3.16-45.21-2.95-12.56-48.91-4.92-121.917-4.91-178.91 0-20.467 5.32-55.5-1.97-71.76-24.07-.226-57.69-6.118-77.65.983 8.68 80.381-55.79 73.23-73.71 124.843-10.93 31.46 8.71 91.814-5.9 118.944-13.69.14-38.15 1.15-48.16-3.93q1.47-60.945 2.95-121.9 11.3-18.675 22.6-37.355c14.13-17.721 72.27-40.44 50.13-83.556-14.45.294-79.77.937-82.56-2.949l-.99-22.61.99-24.575c8.942-13.869 86.552 5.317 103.202-7.859ZM74.208 756.069l143.5 2.949c17.377 2.338 41.41 5.286 54.059.983l6.88 6.881c4.31 9.037 2.78 32.512.983 43.253-5.149 30.775-5.744 46.333-19.658 65.862-25.326 35.547-51.553 34.714-61.922 92.4-2.248 12.5-1.614 32.133 2.949 41.283 16.081-.33 99.766-6.62 105.169.99 4.424 9.9-.833 41.83-6.881 46.2-8.441 4.18-23.035.3-34.4 1.96-21.223 3.11-98.919 10.02-112.049 2.95-17.016-59.84-4.986-132.185 22.607-167.11 14.773-18.7 62.836-46.443 54.059-82.573-24.994-.155-86.636-8.335-103.2-.983.024 44.952-14.076 86.445-6.881 134.673 3.777 25.316 10.231 91.5 1.966 115.013-19.836.27-37.756 11.09-50.127 2.95-.328-.66-.655-1.31-.983-1.97.58-20.1 5.4-46.94 1.966-69.79l-3.932-61.931q4.424-58.976 8.846-117.962c.785-15.009-9.265-35.244-5.9-54.066Zm288.968 8.847 33.418 3.932c37.1.037 104.769-10.059 129.741 4.915 2.317 12.084 1.26 39.909-3.932 49.151-41.926-.984-95.911-8.13-139.569-1.966-13.294 49.409-2.04 180.366 30.469 190.706 40.066 12.74 106.9-14.05 136.621 3.93.35 16.7-2.274 34.79-7.863 46.2q-32.923 3.45-65.853 6.88c-92.177 15.23-132.989-39.23-145.467-108.127v-84.54c-5.133-34.7-4.578-76.56 1.965-107.149l2.949-.983Zm1058.563 84.54c71.19-.723 112.86 36.168 126.8 93.386q1.47 22.608 2.95 45.222c2.81 19.09 3.77 47.23 0 65.86-9.19 2.96-39.16 2.82-48.17-1.97-11.97-70.83 14.86-136.168-58.97-151.381-24.04-4.954-55.38 14.442-77.65 1.966-2.43-12.066-5.89-29.355-3.93-41.287 14.85-14.865 39.79-2.65 58.97-11.801Zm-1014.333 3.927c20.942.254 44.687 3.593 65.853 6.881 14.384 2.234 20.983-9.066 31.452-5.9 9.792 5.191 7.633 31.819 10.812 43.252-15.472 18.569-85.355 18.548-109.1 4.916-2.008-14.339-1.879-36.226.983-49.149Zm1300.353 62.913c13.46-.489 41.95-3.566 47.18 4.915v33.423c-.05 32.725 5.55 72.075-.98 102.235-.66.33-1.31.65-1.97.98-16.5.35-38.34 3.23-48.16-2.95q.5-31.935.99-63.89c-3.4-23.113-3.07-51.738.98-73.73.65-.328 1.31-.656 1.96-.983Zm-887.541 196.6c10.379-.49 26.851-1.81 31.452 3.93 13.485 27.38-9.425 65.49 1.966 93.39 8.836 21.64 26.949 33.4 40.3 50.13 19.779 24.8 28.5 56.09 28.5 101.25 0 16.22 1.53 36.41-3.932 48.17-19.061.96-53.489-4.46-67.819 2.95.087 15.45 6.673 19.87 4.915 31.46-.656.98-1.311 1.96-1.966 2.95-12.179 2.41-35.706 6.33-45.213 1.96q-4.914-19.17-9.829-38.33c-10.669-.36-20.819-3.25-28.5-4.92-24.737-5.39-51.107 11.06-70.768-1.97-3.167-9.91-11.8-32.99-7.863-44.23 1.9-3.94 2.962-4.08 6.88-5.9 6.783 2.75 24.793 6.21 29.486-.98 8.125-21.62-13.271-96.86 2.949-111.08 9.566-5.74 36.466-10.06 46.2-4.92-.238 18.25-4.49 112.45 2.948 120.91h90.426c.983-.65 1.966-1.31 2.949-1.96.692-80.11-57.086-83.35-71.751-140.58-3.39-13.23-.408-88.75 5.9-96.33 1.712-2.62 1.884-2.57 4.915-3.93 2.612-.657 5.234-1.307 7.855-1.967Zm-329.267 1.97 177.9 3.93c26.713-3.96 67.3-5.1 93.374 0 2.15 7.07.385 16.89-.982 25.56-13.369 84.66-84.415 57.46-110.084 115.01-10.65 23.88-13.768 55.08-18.674 85.52-4.166 25.85 7.843 55.37 0 77.66-12.445 3.41-34.447 6.22-47.179 3.93-5.272-14.72-.372-35.56-2.949-53.08-2.986-20.31 1.6-41.33 4.915-58.98 4.651-24.77 5.8-49.04 17.692-66.85 16.928-25.35 40.823-33.62 65.853-51.11 7.56-5.29 15.105-17.76 21.624-24.58v-.98c-53.046.54-95.945-1.97-147.433-1.97-15.274 0-47.2 4.27-54.059-4.91-4.616-6.48-10.619-34.11-6.88-43.26 2-3.827 3.532-3.637 6.882-5.887Zm-83.545.98c12.672-.43 20.431 2.06 27.521 6.88.283 14.27 5.054 35.19 0 46.2-8.994 1.4-15.529-1.52-24.573-1.96-22.731-1.13-74.3 4.16-88.459 12.78-.542 4.87-.858 5.69-3.932 7.86q-4.914.495-9.829.98c3.973 54.85 2.948 116.79 2.949 175.96 0 21.12 5.27 58.35-2.949 73.73-13.195-.52-32.714-.16-45.212-1.97q-.984-95.835-1.966-191.68l-.983-67.83q-15.234.975-30.469 1.96c-7.16 41.47-4.972 105.7.982 145.49l.983 67.83c2.762 18.51 2.331 56.95-8.846 62.91q-21.129.99-42.264 1.97c-5.308-29.4 0-60.23 0-90.44 0-52.2-2.966-101.8-2.948-155.32 0-15.49-6.025-77.13 1.965-82.57 11.041-7.52 43.768.48 59.956-1.97h75.683c23.2-3.48 44.494-5.48 64.87-8.84q13.76-.987 27.521-1.967Zm887.543.98c54.68-.16 108.37.5 156.28 7.87 33.58 5.16 69.02-5.19 103.2 0l93.38-.99c7.45-1.3 15.84-6.9 22.6-4.91q2.46 1.47 4.92 2.95.975 28.005 1.96 56.03c-27.91 9.05-56.64-4.18-83.54-1.97q-48.15-.975-96.32-1.96-31.95.495-63.89.98c-13.4-2.43-90.36-9.63-100.25-5.9.32.66.65 1.31.98 1.97 28.18 8.68 67.44 21.65 84.53 42.27 28.96 34.96 32.01 115.23 22.6 175.96-4.24 27.38 7.99 51.4 2.95 78.64-.98.33-1.96.66-2.95.98-8.35 3.49-34.74 6.99-42.26 3.94-.98-.66-1.97-1.32-2.95-1.97q-2.46-35.88-4.91-71.76c6.46-41.01 10.6-106.24-3.94-141.56-15.71-38.18-68.49-35.7-99.27-58.98-7.05-5.33-10.02-16.95-14.74-24.57s-18.31-45.38-4.92-54.07q13.275-1.467 26.54-2.947Zm-90.42.99c8.3-.54 15.41-.79 18.67 3.93 3.54 5.8 1.97 12.91 1.97 22.61-.03 32.7-11.55 79.93 6.88 98.3 18.72 18.66 98.31-.42 124.82 14.74 12.38 39.99 1.57 91.2 1.97 139.59.15 18.56 6.38 47.21 0 62.92-.66.98-1.31 1.96-1.97 2.95-13.21.49-40.03 3.33-45.21-4.92-5.24-13.58-4.63-97.75-1.96-115.01 1.81-11.74 6.27-32.36 1.96-42.27-25.76.39-57.24 3.08-78.63-2.95-13.42-3.79-20.81-12.06-28.5-21.63l-21.63-16.71c-11.16-15.71-11.36-58.74-7.86-78.64 3.69-20.98-2.99-42.62 5.9-58q11.79-2.457 23.59-4.907Zm-127.78.98c17.43-.36 42.81-2.55 54.06 3.93v41.29q-3.93 3.435-7.86 6.88-1.485 50.625-2.95 101.25c-13.5 58.01-48.22 89.15-82.56 125.83.32.65.65 1.31.98 1.96 56.14 3.14 123.77-8.27 173.97 3.93 3.27 10.89.84 34.77-1.97 47.19-.98.33-1.96.65-2.94.98q-21.63-.975-43.25-1.96c-31.01 5.11-101.65 6.51-138.59.98-16.65-2.5-38.99 3.58-51.11-2.95-19.3-77.86 78.33-110.09 95.34-176.94 3.03-11.89 8.2-94.88 0-101.25l-65.85 2.94q.975 60.945 1.96 121.9c-.65.33-1.31.65-1.96.98-12.02 2.47-36.21 2.65-45.214-1.96l-5.9-118.95c-.982-.33-1.966-.65-2.948-.98-10.154-4.08-42.737 1.34-47.179-3.93-5.363-12.02-2.064-44.24 5.9-48.17 9.469-4.33 33.329.12 45.213 1.96q61.422-2.442 122.858-4.907Zm447.21 278.19q35.385-.48 70.77-.98 23.6.99 47.18 1.97c17.73-2.73 41.52-4.49 60.94-.99 3.57 10.85 1.6 36.67-.98 49.15-12.54 4.46-28.02-1.57-43.25.99-24.99 4.19-52.92-.18-79.61 0-30.57.2-78.79 9.46-100.26-3.94-21.26-98.7 16.89-163.22 95.34-182.84 16.18-4.04 36.74 7.7 52.09.99-.22-15.93-3.41-34.97.99-48.17h.98q21.615-.99 43.25-1.97c6.62 9.62 13.37 84.84 10.81 99.29-29.03 12.15-67.99-6.39-97.31-.99-44.18 8.153-60.66 35.933-60.94 87.493ZM436.892 1222.019c94.164 11 128.339 103.06 103.2 212.33-.982.33-1.966.65-2.948.98h-191.66c-.655-.65-1.311-1.31-1.966-1.97-6.854-9.54-10.251-43.1 0-48.16 9.043-4.37 23.745-.99 35.384-.99q42.752-.975 85.511-1.96h28.5c.983-.66 1.966-1.31 2.948-1.97.72-61.57-11.261-99.42-62.9-107.15-31.849-4.76-67.524 12.56-102.22 3.93v-40.3c19.639-25.58 71.828-1.59 106.151-14.74Zm-31.452 76.67c15.206-.32 36.42-2.11 47.179 2.95v45.22c-.656.65-1.311 1.31-1.966 1.96-9.066 5.63-101.521 7.95-110.083 3.94l-2.949-42.27q2.948-2.955 5.9-5.9c18.986-7.12 44.638 1.41 61.919-5.9Zm1381.939 9.83c2.29.98 4.59 1.97 6.88 2.95 2.43 19.22-2.04 43.62-4.92 61.93v73.73c-.98.32-1.96.65-2.94.98-7.39 2.38-39.62-2.53-46.2-6.88-.33-30.52-6.75-102.25 6.88-119.93 7.37-9.56 28.71-7.45 40.3-12.78Zm-510.12 13.76 5.9.99c1.64 1.63 3.27 3.27 4.91 4.91 6.54 13.92 1.9 111.75-1.96 130.74-.99.33-1.97.66-2.95.99-6.88 2.8-33.88-1.42-40.3-4.92-3.11-12.15-6.99-107.99-1.97-120.91 6.85-8.77 25.97-6.57 36.37-11.8Zm-545.5 165.15c17.737.57 66.526 4.43 70.768 11.8l3.931 39.32c-1.672 4.75-7.385 5.78-8.846 13.76l-1.965 161.21 3.931-2.94c19.653-44.15 78.06-84.77 127.775-100.27l50.127-8.85c17.89-4.75 83.46-11.2 98.29-2.95q.5 48.165.98 96.34c2.06 13.61 4.68 25.78 1.97 39.32-.99.33-1.97.65-2.95.98q-21.63 1.47-43.25 2.95c-33.45 8.37-59.18 31.72-75.68 57.02-8.1 12.42-5.27 69.58-11.795 74.7h-43.248c-4.388-11.89-2.386-29.51 0-41.28 3.39-16.72 1.336-31.79 6.88-45.22 18.116-43.88 60.312-77.09 111.062-88.47 2.56-8.53 1.17-41.82-4.91-46.2-18.03-9.66-56.458 2.44-72.733 8.84-67.162 26.41-100.712 65.6-127.776 131.73-6.013 14.69-13.09 66.47-22.606 74.71q-9.828-4.92-19.658-9.83c-8.344-1.12-17.492 4.88-25.555 1.96-.655-.65-1.31-1.31-1.965-1.96-9.708-15.51-2.009-72.64.982-90.44q.984-34.89 1.966-69.8l2.949-149.41c-27.03-5.24-66.844-4.44-95.34-.99-9.822 1.19-30.9 4.73-35.384.99-1.449-3.51 2.247-39.9 2.949-42.27.655-1.31 1.31-2.63 1.966-3.94q53.561-5.4 107.134-10.81Zm729.3.98c26.17-.13 41.32 3.99 65.85 3.94 81.83-.18 153.54-3.23 228.03 9.83 30.63 5.36 64.42-4.96 94.36 2.94l3.93 49.16q-12.78-.99-25.55-1.97c-9.74 1.63-22.77 7.41-38.34 4.91q-16.215-3.435-32.43-6.88c-23.25-4.01-49.94 1.91-69.79 4.92-20.51 3.11-39.09-5.19-57-7.87q-31.95 1.485-63.89 2.95-28.5-2.94-57.01-5.89c-.33.65-.65 1.31-.98 1.96-1.88 8.55.49 20.4-.98 27.53q-4.92 7.86-9.83 15.72c-17.14 28.35-27.58 22.17-53.08 39.33q-10.32 9.825-20.64 19.66c-7.46 4.86-12.95.97-22.61 2.94-14.29 2.93-30.43 24.51-35.38 37.36-7.71 20.03-1.37 80.97 1.97 103.22q.48 25.545.98 51.11c1.43 9.59 2.58 28.36-.98 36.37q-22.6-3.435-45.22-6.88l-7.86-154.33c-.77-24.08-1.12-57.24 8.85-72.74 17.48-27.21 53.72-44.4 84.52-58 11.65-5.14 24.47-9.03 31.46-18.68 5.94-8.2 15.03-66.92 17.69-78.64 1.31-.66 2.62-1.31 3.93-1.97Zm-423.62 3.94q15.225.975 30.47 1.96c.32.98.65 1.97.98 2.95 4.4 10.51 1.22 35.71-.98 45.22-.99.33-1.97.66-2.95.98h-35.39l-37.35 8.85-128.75-8.85c-1.311-1.64-2.621-3.27-3.932-4.91-2.339-8-3.393-34.88.983-40.31l2.949-3.93c58.536.29 126.76 17.89 173.97-1.96Zm-743.065 325.37 107.134-2.94c22.377-3.44 49.9-7.72 72.734-4.92.328.66.655 1.31.983 1.97l-1.966 46.2c-32.184 13.16-121.341 10.45-165.125 10.81-17.7.15-47.7 6.93-60.939 0-3.739-55.15-4.189-125.3 1.966-177.92l-.983-.99c-71.427.38-104.39 51.2-116.963 111.08-4.407 20.99 1.425 47.11-6.88 63.9-17.285 0-31.877-7.58-47.179-11.8-8.127-26.89-.173-57.5-4.914-88.47l-2.949-68.81c-5.1-31.65-7.252-78.01-1.966-111.08 4.161-26.02-11.378-54.51-.983-77.66 21.429-7.99 55.865-11.39 85.512-8.85l30.469.99c40.182-5.99 99.845-6.91 136.621-.99q28.992.99 57.99 1.97c.983.66 1.966 1.31 2.949 1.97.39 29.26 8.637 96.53-2.949 119.92q-21.621-.48-43.247-.98c-.982-.65-1.965-1.31-2.948-1.96.268-12.42 3.742-65.56-1.966-69.8-36.391-15.08-103.981 0-147.433 0-19.9 0-49.03-6.11-62.9.98q.984 52.59 1.966 105.19c0 12.48-2.683 33.55 2.949 41.28 32.215-23.36 67.946-66.61 126.792-57.99 17.25 2.52 35.092-14.27 46.2.98 7.384 10.14 3.435 34.3.983 48.17-7.022 39.64-2.634 86.51-2.958 129.75Zm868.875-320.46q3.93.495 7.86.98c14.03 30.52 9.67 86.47 3.93 123.86-5.2 33.88 1.9 107.07 8.85 134.68 5.26 20.9 29.28 45.92 47.17 54.06 12.92 5.88 27.33-6.53 35.39 5.9 3.63 8.22 7.63 34.31 3.93 43.25-.65.66-1.31 1.32-1.97 1.97-11.83 6.36-49.13 6.53-63.88 3.93-47.2-8.32-98.08 4.12-147.44 1.97-17.12-.75-35.98 1.39-47.17-4.92-1.98-13.26-7.23-35.62-.99-46.2q30.96.99 61.92 1.97l86.5-3.93v-.99q-9.345-16.71-18.68-33.42c-15.88-41.49-18.58-131.94-9.83-182.84 4.11-23.85-6.6-71.07-.98-85.52 5.94-11.8 23.24-9.15 35.39-14.75Zm-702.767.98c4.992.72 6.735 1.28 8.846 4.92 6.817 17.23-2.985 42.45-2.949 59.96.081 39.16 8.18 80.02 0 117.97-.655.32-1.311.65-1.966.98-17.991-.9-32.228 3.26-48.161 5.9-14.153 2.34-29.336-1.21-40.3-2.95-18.036-2.87-33.273 3.27-46.195 4.91-.328-.33-.655-.65-.983-.98l.983-49.15c27.756-10.3 59.267 1.98 91.408-1.97.328-.65.655-1.31.983-1.96 5-33.3-6.382-71.82-.983-107.15l.983-23.6c4.405-7.37 29.858-3.5 38.334-6.88Zm765.667 0 72.73 4.92c39.55 5.92 80.54-3.88 114.02 3.93 3.96 10.7 2.48 33.7 0 46.2-.98.33-1.97.66-2.95.99l-29.49-.99c-18.54-2.78-96.02-3.6-106.15.99q2.955 73.71 5.9 147.45c.16 18.96 4.26 51.35-2.95 64.88-16.26.17-29.8 2.99-44.23 0-12.35-35.05-17.9-144.5-10.81-190.71 1.99-13-2.4-22.95-4.92-29.49-4.56-11.83 1.58-36.48 3.94-45.22l4.91-2.95Zm-664.43 5.9c5.661-.17 9.563.38 12.777 1.97 4.576 21.94-5.964 61.94 5.9 81.59 17.347 28.73 58.724 39.84 77.648 66.84 13.261 18.93 20.878 45.78 25.555 72.75q.49 26.535.983 53.08c3.351 20.37 11.408 52.91.982 71.76q-25.552-.5-51.11-.98l-4.914-3.93c.328-.66.655-1.32.983-1.97l6.88-3.93q-3.439-3.93-6.88-7.87c10.691-42.43 9.156-121.69-12.778-151.38q-37.346-31.95-74.7-63.9c-12.285-16.4-30.539-84.88-13.76-113.05 11.084.3 23.529 2.87 32.434-.98Zm-6.88 202.5c7.457-.27 11.612.57 15.726 2.95 3.044 11.28.9 27.81-.983 40.31-4.986 32.98 5.992 69.64-.983 100.26l-48.161.99c-.356-25.41-5.725-129.62 6.88-137.63 6.412-5.24 19.308-3.27 27.521-6.88Zm-101.238 16.72c4.493.65 4.3 1.04 6.881 2.94.048 9.98 1.644 43.1-4.915 47.19-10.287 6.42-109.257 4.37-124.826.98-.983-1.64-1.966-3.27-2.949-4.91l2.949-40.31c31.858-11.5 94.56 8.06 122.86-5.89Zm1643.388 367.64c.32.66.65 1.31.98 1.97-.33-.66-.66-1.31-.98-1.97Z" fill-rule="evenodd"/></svg>