<svg xmlns="http://www.w3.org/2000/svg" viewBox="0 0 2117 547"><path d="M918.658 0c40.708 7.887 7.844 79.857-.988 99.9-28.915 65.626-70.79 123.253-107.794 182-15.088 23.953-42.08 51.024-45.491 84.078l1.978 1.978c56.536-1 79.519-145.438 133.506-149.362l6.922 4.946c2.634 42.58-27.266 78.575-41.535 111.774-4.635 10.791-17.256 31.886-10.878 48.476l4.944 4.946c30.519-6.342 46.988-48.475 61.314-72.208 43.632-72.279 74.354-157.18 117.684-231.461 10.35-17.752 45.53-89.467 68.24-84.078 7.76 1.055 8.93 4.345 12.85 8.9 1.08 43.136-27.3 79.765-44.5 107.818-34.21 55.781-65.7 113.841-92.96 176.069-8.462 19.316-36.1 66.006-32.635 89.023l.989.989c29.076-3.56 38.851-29.216 52.416-48.468 16.17-22.953 58.25-81.439 80.1-94.959 8.77-5.424 25.4-9.724 38.57-6.924 42.36 9.011 37.12 55 36.59 103.861l2.97.989c66.01-24.564 115.96-59.315 194.82-74.186 53.5-10.09 121.67 5.039 143.39 34.62 13.8 18.794-1.05 44.123 2.97 67.263q2.475 1.484 4.94 2.967c29.01-4.746 64.31-30.778 90.99-42.533 101.28-44.639 242.99-79.71 362.94-27.7 33.35 14.465 67.46 32.466 75.15 72.208 7.54 38.94-23.16 65.013-42.52 79.132C1915.54 507 1742.92 489 1661.35 447.1c-15.17-7.791-34.79-20.549-41.54-36.6-4.75-11.308.79-30.954-9.89-36.6-12.72-6.553-31.27 3.876-40.54 7.913q-45.99 20.77-91.97 41.544c-12.48 4.423-35.52 14.368-49.45 4.946-19.83-13.412 7.57-75.618-.99-100.893-19.86-10.8-55.71-8.805-81.09-2.968-60.96 14.018-118.23 38.816-167.13 67.262-19.2 11.166-46.36 38.607-73.18 32.642-17.22-23.629-1.42-62.14-14.84-86.056-17.74-3.066-27.39 12.707-37.58 20.772-29.68 23.511-50.87 55.5-81.089 78.143-13.923 10.431-36.153 26.224-56.369 12.859-2.871-10.387.192-51.188-4.945-58.36-23.878 18.418-49.765 69.625-87.026 70.23-26.054-17.409.5-61.272-4.945-85.067l-2.967 1.978c-12.292 27.413-81.315 100.937-120.65 91-17.376-22.984-2.486-64.438 6.923-88.034 17.409-43.659 43.173-82.082 66.258-120.676l41.536-73.2-.989-1.979-6.923 5.935-38.564 59.353c-48.733 77.308-100.6 143.325-176.031 193.874-21.367 14.319-75.875 58.856-111.749 36.6-9.6-29.161 5.107-56.434 16.812-76.164 30.186-50.886 78.626-87.9 104.827-136.5l-1.978-.989c-40.231 20.9-70.542 58.32-105.816 85.067-84.1 63.771-184.257 138.492-294.7 173.1-41.951 13.145-174.977 43.144-192.842-7.913-7.58-21.663 9.143-35.031 19.779-42.534 34.527-24.356 107.918-28.544 152.3-42.533 160.382-50.558 283.07-131.923 403.485-220.581 21.993-16.192 100.977-89.545 128.562-71.219 9.345 25.6-3.447 50.76-13.846 68.252-28.374 47.732-68.534 82.6-100.871 126.611-8.583 11.681-42.308 49.5-33.624 68.251 36.126-2.572 87.162-76.267 106.8-101.882 37.707-49.168 76.986-97.98 111.75-150.351C818.345 88.917 843.963 32.259 918.658 0Zm72.193 28.685c11.769-.407 17.149 1.791 23.739 5.935 12.34 31.52-22.43 79.782-55.385 56.382-8.796-33.235 11.771-50.746 31.646-62.317ZM1106.56 274c-11.36 7.987-24.61 17.535-31.65 29.674 14.15-4.861 22.71-11.752 40.55-6.924l-1.98-18.794-3.96-3.956h-2.96Zm689.28 69.24c-32.58 12.238-57.13 4.994-84.06 24.729l.99 5.935c9.09 17.186 121.43 44.911 153.29 40.555 27.19-3.718 58.22-2.227 58.34-32.642-17.89-34.005-76.14-38.779-128.56-38.582ZM2048.02 456c37.65-.939 96.59 36.14 54.39 67.262-51.52 38.001-134.3-34.162-54.39-67.262Z" fill-rule="evenodd"/></svg>