<svg xmlns="http://www.w3.org/2000/svg"  viewBox="0 0 977 977">
  <defs>
    <style>
      .cls-1 {
        fill-rule: evenodd;
      }
    </style>
  </defs>
  <path class="cls-1" d="M3,7H980V984H3V7ZM106.562,70.505c21.648,1.673,51.854,1.487,72.3-2.931h15.632c12.809-2.789,29.475-1.419,42.011-3.908V57.8c1.92-3.053,1.305-13.029,1.954-16.609H236.5c-2.859-1.8-30.511-1.229-36.149,0-11.26,2.455-24.7-.756-37.126,1.954-16.819,3.667-37.2,2.74-55.689,2.931-2,3.167-2.919,3.939-2.931,9.77C106.426,58.656,106.476,66.619,106.562,70.505ZM572.591,178.952q-0.976-50.31-1.954-100.631a153.377,153.377,0,0,1,30.287.977V77.344c3.06-4.648.29-15.02,0-20.517H598.97c-8.358-5.494-38.077-2.556-49.827-1.954-1.2,2.229-1.6,2.2-1.954,5.862-3.856,6.171-.977,24.682-0.977,33.218q0.977,42.984,1.954,85.976c-17.26,2.3-45.479,6.077-62.528,0q0.977-6.838,1.954-13.678c6.233-16.537,22.5-17.059,45.919-16.609q0.489-1.466.977-2.931c4.732-7.235-.737-46.093-2.931-51.781-7.222-.865-14.949-0.24-22.471,0-1.231,10.2.827,18.485,0.977,29.31h-1.954c-7.347,4.775-19.7,5.213-27.356,10.747-16.56,11.965-22.571,44.783-16.609,70.344,55.23,4.288,140.465,6.983,164.136-29.31,14.281-21.895,9.09-65.135,8.793-98.677L640,76.367c4.055-2.852,13.627-2.189,20.517-1.954,14.129,0.482,30.394-.1,44.942,0,1.305,11.52,0,23.761,0,37.126q0.489,27.354.977,54.712h1.954c5.146,3.367,14.191,1.275,20.517.977,4.222-12.688,1.055-41.245.977-56.666,2.765-4.335,1.088-26.948.977-34.195h42.011A108.672,108.672,0,0,1,797.3,73.436v0.977l-6.839,7.816c-8.592,6.255-21.375,9.847-27.356,18.563-6.517,9.5-9.882,23.52-12.7,36.149-1.44,6.451.936,13.9,1.954,18.563,1.881,8.615-.492,20.023-0.977,27.356-20.976.34-47.3,3.486-69.367,0.977q-0.489-20.026-.977-40.057c3.183-14.406,4.057-32.025,2.931-48.85-3.015-1.9-3.351-2.82-8.793-2.931-3.218,2.152-9.676,1.568-12.7,3.908-3.538,5.167-.305,13.877-1.954,21.494-3.708,17.121-.955,42.205-4.885,59.6-2.358,1.621-4.158,4.651-6.839,5.862-6.609,2.985-13.828,2.276-18.563,6.839,3.295,5.25,3.293,16.667,8.793,19.54,8.353,5.237,21.606-3.23,32.241-.977,32.3,6.842,73.6-.415,104.539-2.931,1.341-32.14-7.651-71.48,6.839-94.769C791.57,96.219,811.7,88.955,823.68,77.344l8.793-5.862V53.9c-1.614-2.371-1.879-7.029-1.954-10.747h-1.954c-3.247-2.02-11.651-.991-16.609-0.977L771.9,44.126c-11.548.395-26.036,0.977-39.08,0.977H712.3c-16.492,3.664-36.1,3.909-56.666,3.908H638.05c-4.4-1.057-8.528-2.8-14.655-2.931-2.355,4.632-7.3,7.56-8.793,12.7-2.893,9.953.257,35.026,1.954,42.988,1.742,8.176-.43,20.513-1.954,27.356q-0.976,9.281-1.954,18.563C607.284,166.883,595.085,177.4,572.591,178.952ZM36.218,184.814c0.044-38.353,47.529-32.885,50.8-74.252l49.827-2.931c0.727,11.749,2.818,22.5,2.931,35.172-18.191-.091-34.573-0.84-49.827.977a97.006,97.006,0,0,0,1.954,22.471c4.207,2.625,8.877,3.087,16.609,2.931,5.756-3.642,47.78-.158,56.666,0v-1.954c6.437-9.057.17-47.611,0-60.574l45.919,0.977c0.169,15.748.042,29.092,0,43.965-0.017,6.009,1.6,17.393-.977,21.494-5.524,15.569-44.771,15.792-67.413,15.632v1.954c-2.917,4.411-.357,14.459,0,19.54l2.931,0.977c9.095,6.566,33.337.193,42.011-1.954,14.254-3.528,24.455-4.43,34.2-11.724,13.193-9.88,19.279-52.9,13.678-78.16-2.044-9.22.677-33.138-3.908-39.08-1.946-1.306-6.357-1.078-9.77-.977-8.244,5.114-32.652,2.932-44.942,2.931-31.936,0-57.167,2.954-87.93,2.931L88,84.183a354.078,354.078,0,0,1-1.954-38.1H84.091c-4.426-2.93-15.593-.475-20.517,0-1.2,2.229-1.6,2.2-1.954,5.862-3.155,5.14.757,15.924,1.954,20.517,2.943,11.29,2.1,31.718-.977,42.011C57.417,131.826,41.3,136.141,28.4,145.734,11.524,158.284,6.764,184.9,12.77,211.193h12.7c5.069-3.071,19.239-.977,26.379-0.977,18.428,0,33.808,1.517,49.827-1.954,7.042-1.526,15.352,1.286,20.517-1.954,1.812-2.747,1.1-10.246.977-14.655l-2.931-7.816c-2.6-.9-6.772-1.027-10.747-0.977C99.63,189.071,52.09,184.914,36.218,184.814Zm219.825,18.563c7.631,0.931,19.448,4.788,28.333,2.931,9.3-1.943,20.8-3.035,30.287-3.908,19.084-1.755,41.419-.388,56.666,2.931,10.321,2.247,20.851-1.348,29.31-1.954,0.68-8.162.572-16.216-.977-23.448h-1.954c-6.662-4.166-19.119,1.928-26.379.977-8.073-1.057-19.641-1.238-27.356-2.931H329.318c-2.747-.577-9.41-1.924-13.678-0.977-6.232,1.383-13.534,3.054-19.54,3.908l-0.977-.977q0.489-1.465.977-2.931c16.755-17.609,33.527-35.734,42.011-61.551,3.715-11.3,1.891-26.3,5.862-38.1,20.742-2.407,49.742,3.283,67.413-3.908,2.423-6.119,2.965-13.655,2.931-22.471-15.53,0-32.377,5.466-48.85,1.954-12.814-2.732-35.475-3.056-45.919-.977V66.6c-4.148,7.057,1.093,21.335-.977,30.287-5.026,21.74-12.383,31.237-23.448,45.919-3.736,4.958-7.579,12.281-14.655,13.678Q279,102.264,277.537,48.034a10.7,10.7,0,0,1-2.931-1.954,90.6,90.6,0,0,1-19.54,1.954,21.016,21.016,0,0,0-.977,6.839c-3.524,5.653.606,33.837,1.954,40.057v39.08c0.006,9.105.279,18.606,1.954,26.379C261.079,174.69,256.3,190.228,256.043,203.377Zm229.595-83.045c-0.284-12.149-.95-26.506-0.977-40.057,14.065-.955,31.308-0.969,46.9-0.977,0.811-6.886,1.929-13.631,1.954-22.471l-2.931-1.954c-5.031-3.892-16.512-1.459-23.448-.977L488.569,55.85c-3.118-.716-7.332-3.743-11.724-2.931-4.808.889-11.581,2.781-16.609,3.908-1.963,3.683-2.073,9.355-1.954,15.632,4.72,7.488,1.952,38.659,3.908,48.85a15.338,15.338,0,0,0,4.885.977C470.743,124.107,480.872,121.05,485.638,120.332Zm-127.01,54.712c7.379,0.233,17.931.285,22.471-2.931,3.843-6.1,1.084-43.481.977-53.735l0.977-.977c10.474-.84,22.437-0.988,32.241.977,1.368,12.268,1.228,28.969-.977,40.057q1.465,22.468,2.931,44.942h22.471c1.254-17.96-1-34.708-.977-54.712q0.489-16.119.977-32.241c-0.8-3.669-3.375-12.09-2.931-15.632,0.243-1.94,1.792-4.176,1.954-7.816a17.646,17.646,0,0,1-3.908-2.931c-24.1-1.127-49.135,2.76-74.252,2.931V94.93c-2.778,4.461-.977,17.009-0.977,23.448Q359.116,146.709,358.628,175.044Zm474.822,72.3c8.087-.922,18.783-0.987,28.333-0.977v1.954c-10.25,12.859-5.709,28.994-9.77,47.873-2.384,11.083-1.07,24.111-.977,36.149,0.145,18.807-.957,37.074.977,53.735,7.794,0.258,17.913.447,22.471-2.931,2.819-4.423,1.088-27.775.977-35.172,3.33-5.571,1.473-28.565,1.954-37.126,0.329-5.853.737-16.848,1.954-22.471V273.721c3.5-12.472,17.114-26.471,31.264-28.333a182.547,182.547,0,0,0,1.954-23.448l-2.931-.977c-5.038-3.142-11.321,1.262-17.586,0-9.291-1.871-31.445-1.3-42.011.977H814.887c-1.569,2.245-2.092,1.475-2.931,4.885-5.256,8.78.869,38.212-1.954,50.8-6.358,28.362-19.3,48.108-42.011,59.6v-1.954c-2.946-4.692-2.638-16.958-1.954-24.425,1.626-17.749.32-39.3,0.977-58.62,0.241-7.079,3.1-19.948-.977-25.4v-0.977c-6.638-1.008-19.405-2.512-22.471,2.931-6.134,9.686.139,28.8-.977,41.034-2.6,28.448-2.987,58.126-2.931,87.93H737.7c-6.984,4.457-37.324,2.059-48.85,1.954v-1.954h0.977c3.83-10.736,18.883-10.576,29.31-14.655,2.707-5.554,1.879-14.959-1.954-19.54-1.265-.857-2.41-0.874-4.885-0.977-6.677-4.294-20.3.807-24.425,2.931-18.865,9.711-25.943,28.558-25.4,57.643a17.643,17.643,0,0,1,3.908,2.931c13.031,0.378,25.07-.311,37.126-2.931h36.149c27.938,0,52.706.93,79.137-.977a17.643,17.643,0,0,1,2.931-3.908c0.432-5.92,2.366-13.361-.977-17.586-4.108-3.547-28.414-3.785-36.149-3.908v-1.954c7.733-4.632,12.624-12.363,19.54-17.586C828.521,318.814,833.482,290.726,833.45,247.342ZM562.821,249.3c15.7,0.042,31.513-.856,45.919-0.977l0.977,0.977c4.1,34.978-23.786,43.508-36.149,64.482-8.4,14.249-4.9,45.184-2.931,63.505a117.046,117.046,0,0,0,22.471-.977c0.293-16.143-2.039-46.358,4.885-57.643,8.751-14.264,25.489-21.784,32.241-38.1,6.985-16.882,2.784-39.7,2.931-59.6a81.706,81.706,0,0,0-18.563,1.954c-4.274.937-10.925-.391-13.678-0.977-12.5-2.659-28.3.881-37.126,2.931-2.515,4.763-2.076,13.883-1.954,21.494C562.578,247.413,562.431,247.289,562.821,249.3ZM407.478,222.917c-1.107,1.51-1.06.823-1.954,2.931-5.31,8.8,7.064,33.416,5.862,44.942-2.22,21.293-8.427,38.6-25.4,44.942-15.812,5.909-41.55,1.088-59.6.977v1.954c-3.272,4.259-2.261,18.508.977,22.471,4.788,3.035,32.866,2.332,39.08.977,11.157-2.433,20.043-.483,29.31-3.908,29.371-10.855,37.644-38.173,37.126-79.137h1.954c1.929,12.8,20.4,25.29,27.356,35.172,12.428,17.657,12.52,31.746,12.7,59.6-4.5,1.536-12.5,1.051-18.563.977-4.063-2.561-10.555-.057-15.632,0-11.572.129-20.658-3.763-30.287-1.954v7.816q2.442,7.328,4.885,14.655c9.8,5.551,37.771,6.014,51.781,2.931,3.064-.674,7.241.631,8.793,0.977,8.548,1.907,16.081.3,22.471-.977,1.138-4.326,2.861-9.884,3.908-14.655V340.157c8.678-43.141-32.427-66.955-47.873-89.884H466.1c3.938-2.458,14.714-.977,20.517-0.977l46.9-.977v-1.954c3.871-4.907,2.563-14.755,1.954-21.494a24.529,24.529,0,0,0-7.816-.977c-7.542-4.684-24.608.869-33.218,0.977C464.8,225.244,434.509,223.043,407.478,222.917ZM652.705,280.56a211.893,211.893,0,0,0,22.471.977c0.317-13.412,4.512-48.56-1.954-57.643-2.259-1.5-7.919-1.094-11.724-.977-2.6,1.589-7.491,1.17-9.77,2.931C645.876,234.907,651.333,270.032,652.705,280.56Zm57.643-56.666c-2.82,1.856-9.465,1.94-13.678,1.954q-0.489,1.465-.977,2.931c-2.766,4.428-.011,12.519,0,18.563q-0.489,20.516-.977,41.034l-2.931.977c-3.907,2.337-11.289-.285-16.609.977-5.818,1.38-13.237,2.489-19.54,4.885-6.509,2.474-9.909,8.475-14.655,12.7-24.811,22.1-19.205,31.118-18.563,71.321l0.977,0.977c6.563,0.527,15.066,1.282,21.494,0V358.72c-2.8-4.455-.286-13.933.977-17.586,5.829-16.852,19.065-24.933,37.126-29.31,10.752-2.606,26.413,3.305,34.2-1.954,3.937-6.222.129-16.81,1.954-25.4,3.651-17.186.123-39.987,0-57.643l-2.931-2.931h-5.862Zm-595.97,136.78c-0.771,6.283-1.931,12.269-1.954,20.517h1.954c7.752,5.2,39.99,1.3,47.873-.977,36.424-10.5,52.753-24.509,45.919-71.321-1.291-8.844.645-19.9-.977-27.356-3.606-16.564,11.747-53.474-7.816-53.735-2.778,1.813-9.262,2.253-12.7,2.931-1.2,2.229-1.6,2.2-1.954,5.862-3.269,5.32-1.22,23.622,0,29.31v52.758q0.489,10.257.977,20.517C180.139,356.263,138.021,360.3,114.378,360.674ZM292.192,232.687c0.7,46.25,4.417,71.763-20.517,96.723-4.358,4.363-8.267,10.5-14.655,12.7-2.544-24.881-1.863-53.8-.977-79.137,0.276-7.9,2.017-26.3-2.931-29.31-4.784-3.155-14.717.55-20.517,0.977V236.6c-6.642,8.8,1.4,26.857-.977,38.1-1.923,9.1-.007,19.166,0,29.31q0.489,40.053.977,80.114c4.477-.1,6.939-1.281,9.77-1.954l14.655,0.977H258c1.473-.72,1.877-4.15,3.908-4.885h41.034l43.965-.977c6.42,1.366,20.146,3.723,27.356,1.954,4.117-1.01,7.808-3.221,12.7-3.908-0.038-6.16-1.8-15.764-4.885-19.54-4.788-2.958-15.662-.584-21.494-1.954-17.176-4.036-37.762-2.685-54.712.977-9.3,2.009-18.021-1.434-25.4-1.954v-0.977c0.786-1,.347-0.268.977-1.954,16.877-11.178,29.263-26.481,34.195-49.827,21.813-2.326,47.226,4.924,67.413-1.954,0.782-6.94,1.916-13.055,1.954-21.494-2.229-1.2-2.2-1.6-5.862-1.954-3.937-2.448-15.494-.874-19.54,0-12.813,2.77-31.012,1.28-42.011-.977V256.135c25.138,0.03,41.346-4.655,65.459-1.954q0.489-1.465.977-2.931c3.35-4.271,3.062-12.892,2.931-20.517l-0.977-.977c-8.321-.984-22.155-4.362-31.264-1.954-4.8,1.269-9.1,2.952-16.609,2.931l-31.264-1.954C301.92,229.936,298.016,232.18,292.192,232.687ZM147.6,251.25l-32.241,2.931c-1.2,2.229-1.6,2.2-1.954,5.862-2,3.066-1.049,11.334,0,15.632,3.415,13.994,3.875,30.78,3.908,48.85,0.012,6.836-.5,16.96,3.908,19.54,4.784,3.155,14.717-.55,20.517-0.977,1.484-7.876,6.188-7.4,15.632-6.839,3.413-2.228,13.334-1.105,18.563-.977l0.977-.977c0.6-6.338,2.732-17.753-.977-22.471-7.42-4.945-24.557-1.184-34.195-.977-2.8-8.326-1.057-23.075-.977-33.218l2.931-.977c6.4-4.239,20.688-.209,30.287,0,1.776-13.072,1.881-36.544-4.885-44.942-1.8-1.21-5.572-1.064-8.793-.977-3.043,2.041-8.873,1.69-11.724,3.908C146.554,237.719,147.469,246.433,147.6,251.25ZM82.137,233.664c-3.781,2.416-10.952,1.374-14.655,3.908-2.965,4.6-1.107,18.72-.977,25.4,1.283,2,1.509,8.3,1.954,10.747a24.529,24.529,0,0,0,7.816.977c4.094-2.648,13.5-1.156,15.632-5.862,3.649-5.446-1.09-29.811-2.931-34.2L88,233.664H82.137Zm442.581,144.6,22.471,1.954c1.093-9.533.875-21.889-.977-30.287q0.489-30.284.977-60.574l2.931-.977c7.519-5.447,24.812-.426,34.2,0a193.258,193.258,0,0,0,1.954-24.425,176.548,176.548,0,0,0-62.528,2.931c-1.2,2.229-1.6,2.2-1.954,5.862-3.908,6.239.971,20.738,0.977,29.31q-0.489,27.354-.977,54.712A139.87,139.87,0,0,1,524.718,378.26ZM93.861,385.1c0.784-11.088-1.976-20.834-1.954-33.218,0.027-15.066,2.672-29.392,0-42.988H88c-2.916-1.356-15.171,1.844-19.54,2.931v1.954c-3.031,4.426-1.954,14.283-1.954,21.494,0,19.457.558,37.785,3.908,52.758a17.894,17.894,0,0,0,5.862.977C80.168,386.208,87.726,385.2,93.861,385.1Zm851.944,17.586c-4.6,2.8-13.241.942-17.586,3.908-2.019,3.078-1.1,11.792-.977,16.609-4.512,7.211-.782,26.009-2.931,36.149-3.208,15.134-.128,38.784,2.931,52.758,0.989,4.517-.334,11.66-0.977,14.655-2.12,9.873-.688,20.3.977,28.333a21.018,21.018,0,0,0,6.839.977c2.912,1.915,11.019,1.1,15.632.977V555.1c4.342-5.767,1.96-32.105,1.954-42.011-0.01-17.252-1.953-33.654-1.954-52.758V442.742a128.2,128.2,0,0,0,2.931-36.149A51.721,51.721,0,0,0,945.805,402.685ZM460.236,430.041v2.931c-10.89,9.98-22.981,17.4-36.149,25.4-6.6,4.012-14.39,5.469-18.563,11.724-9.1,13.647-4.134,43.713-3.908,63.5-23.673-.053-44.063,3.3-64.482,1.954V534.58c16.782-11.251,18.7-44.791,13.678-69.367h-1.954c-5.058-3.41-17.078-.086-21.494.977v1.954c-8.837,12.669,8.788,23.279.977,39.08-3.969,8.028-14.953,16.856-22.471,21.494-3.751,2.314-9.454,2.074-11.724,5.862-3.746,5.084-1.491,19.332,1.954,23.448,5.589,3.5,17.387.436,24.425,1.954,26.615,5.74,55.652-2.492,81.091-2.931,2.381,3.873,4.15,5,10.747,4.885,3-2.039,8.771-2.025,13.678-1.954a15.338,15.338,0,0,0,.977-4.885c1.607-4.7-1.478-20.653-2.931-27.356-3.873-17.865,1.472-39.22,5.862-49.827l33.218-17.586c5.83-4.177,9.932-11.371,17.586-13.678v18.563c-2.407,3.366-2.52,8.426-4.885,11.724-8.2,11.436-24.478,16.387-30.287,30.287-6.157,14.733-.727,34.581,0,50.8h1.954c3.751,2.438,14.875,1.106,20.517.977l0.977-.977c1.5-12.811-5.847-32.122-.977-43.965,5.377-13.076,22.637-14.886,30.287-25.4,7.855-10.8,8.473-34.4,4.885-50.8-2.222-10.16.811-21.156-1.954-29.31a511.211,511.211,0,0,0-72.3-4.885c-7.1,0-22.04-1.9-24.425,2.931V427.11l2.931,0.977C416.3,434.345,446.3,430.177,460.236,430.041ZM609.717,531.649C593.8,532,574.4,531.9,559.89,528.718c-6.545-1.435-12.706,2-15.632-2.931,9.458-10.421,11.128-53.939,6.839-74.252-1.226-5.808,1.033-12.369,1.954-16.609,2.026-9.326-.552-21.5-1.954-28.333-3.031-1.629-6.337-2.047-11.724-1.954-2.266,1.592-6.049,1.875-9.77,1.954-0.886,7.887,1.381,21.723,0,28.333-2.484,11.885-1.954,27.509-1.954,42.011,0,10.718,3.506,24.685,0,33.218-5.755,14.009-28.192,12.636-32.241,23.448-3.04,4.249.725,18.714,3.908,20.517,10.276,6.345,36.617-3.843,49.827-.977,43.91,9.526,107.268,3.046,156.32,2.931l0.977-.977c0.965-7.348,3.41-13.817,1.954-21.494l-2.931-.977c-3.758-2.355-13.954-.977-19.54-0.977h-50.8V529.7c-1.607-2.42-1.1-8.7-.977-12.7l0.977-.977c12.684-1.475,26.278.561,37.126,1.954,7.584,0.974,20.932-1.019,30.287-.977l0.977-.977c0.837-7.1,1.93-14.321,1.954-23.448-23.5-2.768-49.241-2.88-74.252-2.931-2.039-9.21-6.642-20.5-11.724-27.356-8.2-11.067-19.673-13.73-23.448-30.287h1.954c12.363-8.109,43.62,7.075,55.689-1.954,2.648-4.09,1.106-16.414.977-22.471-8.965-.641-19.976,2.3-30.287,0a126.978,126.978,0,0,0-53.735,0v5.862c-4.644,7.294,4.124,32.663,6.839,37.126a108.639,108.639,0,0,0,15.632,19.54l7.816,6.839C609.052,488.894,611.483,513.605,609.717,531.649ZM275.583,489.638c-22.083-.021-43.233.013-66.436,0-1.668,2.663-2.478,2.441-2.931,6.839q3.418,9.281,6.839,18.563c1.42,1.183,16.765,2.784,20.517,1.954,18.877-4.178,43.939,2.165,63.505-1.954,5-14.3,1.457-35.993,4.885-51.781,0.986-4.542-1.029-10.5.977-13.678,5.047-14.037,39.234-19.5,59.6-19.54V432c5.238,7.544,4.218,26.4,1.954,35.172-1.19,4.611.311,12.524,0.977,15.632,3.012,14.055-1.428,28.554.977,40.057h22.471l0.977-2.931c4.885-7.325.785-23.638,0-32.241q0.977-38.1,1.954-76.206c-11.436-6.753-33.51-8.654-49.827-4.885l-14.655.977c-20.092,5.17-39.489,14.217-46.9,32.241-3.824,9.3-1.454,18.635-3.908,30.287C275.526,475.009,275.505,483.184,275.583,489.638ZM674.2,431.018c24.168,0.081,50.528,4.206,70.344,0a24.529,24.529,0,0,0,.977-7.816c2.527-3.788.34-11.069,0-15.632-22.586-1.457-52.471-2.293-71.321-.977a17.643,17.643,0,0,1-2.931,3.908C671.2,418.833,673.221,424.105,674.2,431.018Zm105.516,1.954,40.057,0.977,0.977,0.977q0.489,6.349.977,12.7c-3.44,3.619-4.825,9.652-8.793,12.7-11,8.456-22.942,16.484-28.333,30.287q-0.977,30.284-1.954,60.574l0.977,0.977c6.615,0.446,14.562.969,22.471,0.977l0.977-.977c0.687-6.346,3.7-14.163,1.954-22.471-2.381-11.34-3.371-28.358.977-38.1,6.055-13.57,23.633-18.9,31.264-31.264,2.483-4.021,3.337-23.685,5.862-25.4,5-3.423,30-2.846,35.172.977h0.977c0.824,12.348,0,24.987,0,38.1v19.54c-1.8,8.416-3.112,33.16-.977,42.988a119.816,119.816,0,0,1,2.931,19.54h1.954c3.849,3.017,13.721,2.107,20.517,1.954v-1.954c3.755-5.952.035-28.591,0-36.149q0.489-27.354.977-54.712c1.844-8.763,1.9-25.436,0-34.2-1.8-8.321,1.245-17-2.931-22.471-3.322-2.879-18.857-3.376-25.4-1.954-8.064,1.752-25.222.93-34.2-.977-12.759-2.712-22.541,1.96-35.172,1.954-9.358,0-23.657-3.714-30.287.977C776.866,414.045,779.267,425.863,779.715,432.972Zm-708.325,0c16.56-.744,32.735.9,49.827,0.977,0.846,22.951-18.384,27.6-28.333,42.011C79.828,494.872,78.41,528.236,84.091,555.1a24.529,24.529,0,0,0,7.816.977c5.757,3.747,41.058-1.56,47.873-2.931,5.971-1.2,10.91,2.7,15.632-.977,4.086-4.424,4.407-15.516,2.931-22.471-16.086-1.864-34.15-.053-50.8,0l-0.977-.977c-5.036-40.96,14.342-41.528,29.31-62.528,8.885-12.466,10.912-34.371,9.77-53.735l-3.908-3.908c-6.791,2.245-17.474.236-24.425,0l-53.735-.977c-7.631-.013-13.237-1.159-19.54,0v9.77c3.949,5.883,4.041,31.416,1.954,41.034-3.56,16.4-4.563,39.886-.977,56.666q-0.488,20.515-.977,41.034l0.977,0.977c8.443,0.532,13.863-1.72,23.448-1.954,6-17.162,1.531-47.382-1.954-63.5-0.873-4.038.436-10.185,0.977-12.7V467.167A172.282,172.282,0,0,0,71.39,432.972Zm107.47-21.494c-1.514,1.025-3.991,1.007-6.839.977l-0.977.977c-1.341,15.651-1.1,35.894-.977,52.758,0.335,44.369,1.843,73.88,31.264,88.907,12.737,6.5,33.847,5.283,48.85,1.954,8.093-1.8,20.393,1.79,23.448-4.885,3.154-4.035,3.045-12.432,2.931-19.54l-0.977-.977c-22.185-2.683-47.5,3.32-68.39-1.954-12.554-21.258-17.945-59.254-11.724-90.861,2.827-.977,7.5-1.035,11.724-0.977,3.631-2.308,13.893-.8,17.586,0l39.08,0.977V436.88c2.879-4.169,2.087-13.61,1.954-20.517-12.064-6.837-40.051-6.434-56.666-2.931C199.353,415.5,189.637,411.457,178.86,411.478Zm518.787,41.034c-5.01,3.21-19.752,2.518-25.4,3.908-1.211,3.526-1.046,9.656-.977,14.655,1.252,1.855,2.077,5.894,2.931,7.816,9.011,0.967,16.974-.241,24.425-1.954,6.219-1.43,13.888.636,17.586,1.954,28.981,10.328,17.539,40.743,23.448,72.3h3.908c3.829,2.573,15.46.9,19.54,0V544.35c4.131-6.443-.385-21.792-0.977-28.333-0.8-8.857.695-17.122-1.954-24.425C751.225,466.918,732.194,451.921,697.647,452.512Zm-490.454,1.954c-0.472,7.406-3.716,21.533,2.931,24.425,8.858,7.257,47.715,5.068,49.827-5.862-4.389-7.858,2.417-18-9.77-18.563C242.806,460.486,219.972,454.709,207.193,454.466Zm630.165,30.287c-0.908,22.327-.954,44.692-0.977,67.413h1.954c5.329,3.7,14.68,1.176,22.471.977v-1.954c2.714-4.282,2.084-14.044,1.954-20.517-0.266-13.194-.847-29.292-0.977-43.965l-2.931-.977C853.546,482.146,844.839,484.544,837.358,484.753Zm-429.88,94.769c-1.152.784-1.643,0.755-3.908,0.977-1.668,2.663-2.478,2.441-2.931,6.839-3.839,5.95-.222,16.139-1.954,24.425-7.973,38.133,33.955,44.2,35.172,85.976-11.694,3.9-32.194,1.06-45.919.977v-1.954c-5.7-8.977-1.108-43.87-.977-56.666-3.289-1.132-8.939-1.044-13.678-.977-3.248,2.183-7.347,1.874-9.77,4.885-6.189,8.156,1.378,40.815-.977,53.735-4.229.378-12.476-1.071-14.655,0-2.411,1.265-.665-0.419-1.954,1.954-3.97,5.807,1.983,18.1,3.908,22.471,17.277,1.777,32.972-2.284,47.873,2.931,0.455,5.092,2.173,13.987,4.885,17.586,2.912,1.915,11.019,1.1,15.632.977,1.486-1.027,4.8-1.55,6.839-1.954v-6.839c-1.865-2.321-2.009-5.361-1.954-9.77h1.954c6.678-4.464,20.686-1.147,30.287-.977l0.977-.977c3.4-27.675-.224-55.5-11.724-71.321-5.9-8.117-16.372-13.491-20.517-23.448-5.24-12.587,2.452-32.055-.977-46.9C418.816,579.863,413.889,579.471,407.478,579.522Zm-159.251.977c-3.485,3.686-4.145,5.755-3.908,13.678l2.931,9.77c2.852,1.8,2.838,2.676,7.816,2.931,5.774,3.6,18.612,0,26.379,0,20.486,0,42.662,1.117,64.482.977v0.977c-3.974,3.056-5.79,8.8-9.77,11.724-11.254,8.266-25.556,12.66-33.218,24.425-12.038,18.485-10.473,60.019-9.77,85.976l0.977,0.977c6.986,0.437,13.643-.6,21.494-0.977,2.515-4.763,2.076-13.883,1.954-21.494-4.393-6.993,1.367-32.053,2.931-38.1,3.786-14.647,5.186-26.674,15.632-34.2,23.464-16.894,43.326-11.09,43.965-53.735l-0.977-.977c-10.557-.231-25.375-3.482-37.126-0.977-12.207,2.6-35.669,2.624-47.873,0C279.7,578.37,261.516,583.052,248.227,580.5ZM96.792,746.589l22.471-.977c9.758-38.2-2.922-90.9,1.954-133.849l14.655-.977q0.976,63.011,1.954,126.033L159.32,737.8l0.977-.977c4.442-38.448-.3-82.414-0.977-120.171h4.885c1.073-2,1.78-3.752,3.908-4.885,9.644-7.345,37.822-5.006,52.758-4.885,1.291-3.768,1.048-10.37.977-15.632-1.025-1.514-1.007-3.991-.977-6.839l-2.931-.977c-4.711-3.6-20.194-2.616-27.356-.977-28.137,6.438-65.817-.694-93.792,4.885-3.463,9.429-2.551,52.613,0,64.482v33.218C96.949,705.354,96.662,726.5,96.792,746.589ZM823.68,611.763q-0.489-13.677-.977-27.356c-2.229-1.2-2.2-1.6-5.862-1.954-7.575,5.836-41.048,2.931-54.712,2.931l-46.9.977c-19.345-4.271-73.128-8.47-91.838-1.954-1.669,14.617,3.908,32.886,13.678,39.08,15.805,10.02,39.283,9.2,46.9,27.356,12.539,29.907-6.383,72.359,3.908,103.562,7.713,0.981,15.291-.325,22.471-1.954,1.211-3.526,1.046-9.656.977-14.655-4.808-7.636-1.863-28.521,0-37.126,3.4-15.716-1.8-50.893-5.862-60.574-5.531-13.184-17.132-20.862-30.287-26.379-5.626-2.359-14.712-2.633-18.563-6.839h21.494c4.8,2.966,33.9,2.931,42.988,2.931h51.781C786.189,612.655,810.339,613.292,823.68,611.763ZM498.339,668.429c-0.03-18.714-.939-39.5-0.977-59.6l32.241-.977v1.954c3.619,5.7,1.49,42.339-.977,49.827-10.6,32.169-50.524,38.438-45.919,83.045h1.954c5.521,3.424,17.121-.588,24.425.977,16.577,3.552,44.9,3.589,61.551,0l26.379,0.977v-1.954c2.817-4.272,2.074-13.748,1.954-20.517l-2.931-.977c-3.861-2.585-8.917-.721-14.655-1.954-18.863-4.055-46.008-.132-67.413,0v-1.954c14.1-9.693,34.28-38.377,39.08-57.643q0.489-21.492.977-42.988c0.188-.859.2-7.013,0.977-8.793l3.908-2.931V584.407h-1.954c-4.224-2.826-20.087-3.528-27.356-1.954-25.21,5.458-53.34.849-78.16,0.977-4.215,6.635-5.232,14.146-3.908,24.425h1.954c4.216,2.639,17.555,1.056,22.471,1.954q1.466,28.818,2.931,57.643l0.977,0.977C482.851,668.966,491.426,669.264,498.339,668.429Zm148.5,2.931a324.874,324.874,0,0,1-2.931,44.942c-1.116,8,1.618,22.909,1.954,31.264l2.931,0.977c4.881,3.419,12.982,1.3,19.54.977q0.489-1.466.977-2.931c3.969-6.3.034-20.962,0-28.333-0.11-23.846,3.433-47.462-.977-68.39h-1.954c-14.46-10.61-50.521,5.245-60.574-9.77-9.8-12.874,2.521-42.568-2.931-56.666-2.827-.977-7.5-1.035-11.724-0.977-3.339,2.168-7.033.848-8.793,4.885-4.26,5.97-.124,17.634-1.954,26.379-2.232,10.661-2.093,30.013,2.931,37.126,2.305,3.263,7.817,5.033,10.747,7.816,3.64,3.457,6.666,8.833,11.724,10.747C616.12,673.308,633.565,671.547,646.843,671.36Zm152.412-42.988c-0.87,7.159-.551,16.225,0,23.448-3.055,1.054-8.22,1.04-12.7.977-9.278-6.2-23.887,2.462-30.287,5.862-30.236,16.064-31.853,38.727-29.31,81.091l1.954,0.977c4.358,3.348,19.94,4.757,28.333,2.931,22.626-4.923,55.978,2.348,78.16-1.954,0.83-2.392,1.015-6.042.977-9.77,2.333-3.227.913-11.425-.977-13.678-4.6-2.965-18.72-1.107-25.4-.977-2.249,1.419-10.792,1.819-14.655.977-12.923-2.816-31.251-.812-45.919-0.977-0.274-23.687,8.632-37.432,27.356-42.011,8.251-2.018,19.563.63,25.4,1.954,8.653,1.962,16.248.346,23.448-.977,1.054-3.055,1.04-8.22.977-12.7-5-8.452.261-27.271-5.862-35.172-1.265-.857-2.41-0.874-4.885-0.977C812.786,629.414,804.072,628.5,799.255,628.372ZM170.067,659.636a108.245,108.245,0,0,0,33.218-1.954c37.906-8.445,47.189,20.926,46.9,52.758l-73.275.977c-1.8,2.852-2.676,2.838-2.931,7.816-2.415,3.751.918,11.692,1.954,15.632,6.412,3.291,19.793,1.954,29.31,1.954H270.7c1.272-2.362,1.76-2.768,1.954-6.839,5.788-8.637,3.588-34.9.977-44.942-7.373-28.36-18.115-45.339-46.9-51.781-8.422-1.885-14.235,2.782-23.448,1.954-15.317-1.376-23.27-1.684-33.218,4.885v19.54Zm4.885,37.126c11.591,0.221,46.2,2.872,53.735-2.931,2.648-4.09,1.106-16.414.977-22.471H227.71c-6.445-4.23-40,.071-50.8.977-2.446,3.906-3.078,7.392-2.931,14.655C175.282,688.938,175.053,693.349,174.952,696.762Zm699.532-21.494c-3.378,2.24-11.62,3.011-15.632,3.908-8.324,14.55-4.965,38.1-4.885,59.6l2.931,0.977c4.443,3.206,12.975,3.041,20.517,2.931,3.479-10.4,1.059-28.689.977-41.034,3.354-5.119,2.079-17.424,1.954-25.4l-0.977-.977h-4.885ZM629.257,681.13c-3.439,2.592-12.286,3.806-16.609,4.885a21.018,21.018,0,0,0-.977,6.839c-1.852,2.85-.976,10.156-0.977,14.655,0,12.667-.722,28.923,2.931,39.08,6.264,0.736,11.6,1.92,19.54,1.954l0.977-.977c0.849-17.574,6.558-47.838,0-64.482Zm-318.5,108.447c17.825,1.377,43.68-3.9,63.505,0v10.747c-3.157,5.076-.968,30.8-0.977,39.08q-0.976,30.773-1.954,61.551c-2.557,11.8-4.189,28.428,0,39.08a17.9,17.9,0,0,0,5.862.977c7.268-4.877,12.56,3.808,17.586,1.954,7.754-8.856,6.844-28.8,11.724-40.057,12.3-28.37,51.554-72.2,95.746-63.5,2.631,5.884,3,13.337,2.931,22.471l-0.977.977c-22.8,1.61-46.533,24.283-53.735,42.011-3.9,9.59-4.062,28.323-3.908,41.034,5.509,1.869,15.334,1.054,22.471.977V944.92c4.851-7.913.5-23.261,3.908-32.241,4-10.527,23.627-26.065,35.172-29.31l25.4-1.954q-0.976-33.214-1.954-66.436C502.48,811.2,458.934,817.6,440.7,828.657c-8.468,5.133-15.866,11.871-23.448,17.586-7.782,5.866-16.72,13.923-19.54,24.425h-1.954V846.243c3.311-5.338.977-20.829,0.977-28.333V791.531l4.885-4.885c1.039-4.5-1.867-13.487-1.954-19.54l-2.931-.977c-10.64-7.662-48.114-4-61.551-.977-7.68,1.728-17.284-1.069-22.471,2.931C309.782,772.528,310.633,782.553,310.755,789.577ZM651.728,948.828l21.494,2.931c2.713-8.068,1.057-22.373.977-32.241-3.656-5.937-.336-17.926-1.954-25.4-4.76-21.991.393-44.29,13.678-51.781l14.655-1.954L712.3,828.657c16.831-11,29.261-10.294,29.31-39.08,9.523,0.038,19.051,1.514,27.356,2.931,5.452,0.93,19.129-.845,24.425-1.954,8.511-1.782,16.338,2.48,22.471,3.908,10.056,2.341,21.877-1.3,29.31-2.931,11.507-2.525,22.444,2.084,30.287,3.908,12.217,2.841,21.927-4.722,33.218-.977V782.738c-1.5-2.259-1.094-7.919-.977-11.724l-0.977-.977a196.247,196.247,0,0,0-29.31-.977l-7.816.977c-24.453-4.617-50.519-5.862-80.114-5.862h-46.9c-7.521-1.627-16.18-1.911-25.4-1.954v1.954c-6.8,10.173-1.549,30.476-9.77,39.08-4.186,4.381-11.574,5.194-17.586,7.816-14.311,6.241-34.112,16.689-40.057,31.264-3.782,9.273-3.263,31.388-.977,42.011v19.54C651.629,916.994,651.451,934.9,651.728,948.828Zm-123.1-183.676c-15.7-.4-26.833,1.79-42.011,3.908-4.45.621-16.206-1.023-20.517-1.954L428,765.152v1.954c-3.229,3.394-2.862,17.033,0,20.517,7.753,5.137,22.693.665,33.218,2.931,24.828,5.345,40.589-1.83,66.436-1.954a21.018,21.018,0,0,0,.977-6.839C531.1,778.079,529.212,769.168,528.626,765.152ZM130.987,859.921c-3.18,27.786-2.2,58.139-.977,86.953h1.954c6.267,3.978,20.492.008,28.333,0,28.45-.03,55.766-1.681,79.137-4.885q0.489-11.723.977-23.448c-4.257-1.454-11.794-1.051-17.586-.977-8.039,5.025-55.419,3.956-70.344,3.908,0.257-22.829-1.194-48.854,2.931-67.413,1.83-8.235.145-18.389-4.885-20.517C146,830.73,138.994,834.59,134.9,835.5c-4.823,1.066-11.431-2.483-17.586-.977a74.939,74.939,0,0,0-33.218,17.586c-2.281,2.01-13.388,11.162-14.655,9.77-2.674-4.285-.975-16.244-0.977-22.471q-0.488-23.934-.977-47.873c13.155-1.535,28.593,3.079,42.988,0,17.766-3.8,42.624-3.629,59.6,0v3.908c4.026,6.222.324,23.211,0,30.287,5.763,1.953,16.039,1.054,23.448.977,2.1-17.341,1-38.476.977-57.643-9.037-3.06-21.156.423-32.241-1.954-15.521-3.329-42.085-3.371-57.643,0-7.761,1.682-20.095-.032-26.379-0.977-12.65-1.9-26.457,2.656-36.149,4.885-4.618,12.207,3.749,23.787.977,37.126-3.381,16.273-2.419,40.261.977,55.689,2.818,12.8-.482,26.859,1.954,38.1,2.286,10.55-4.915,32.39,2.931,37.126,4.641,3.616,14.265,5.359,21.494,5.862v-1.954c5.106-7.607,1.138-26.009,3.908-35.172C82.157,881.872,96.952,859.719,130.987,859.921Zm442.581-93.792c-2.948,2.251-9.636,3.073-13.678,3.908-1.668,2.663-2.478,2.441-2.931,6.839-4.006,6.4,3.284,28.075.977,39.08-4.885,23.3-4.622,68.438,3.908,87.93,2.387,5.455,6.975,10.857,9.77,16.609h-12.7c-4.081,2.565-13.681.442-19.54,0.977-12.716,1.162-25.9.133-40.057,0-1.291,3.768-1.048,10.37-.977,15.632,0.939,1.385.954,3.2,0.977,5.862,2.229,1.2,2.2,1.6,5.862,1.954,4.916,3.119,19.354.978,26.379,0.977,21.512,0,44.637-4.331,64.482,0,8.463,1.847,24.863.486,29.31-2.931h0.977c1.03-7.978-.3-15.2-1.954-22.471-6.1-2.64-9.729.8-15.632-.977-4.416-1.326-8.7-5.805-11.724-8.793-15.166-14.967-12.281-26.205-17.586-50.8-4.323-20.044,2.939-45.194,2.931-65.459,0-9.645.409-23.937-5.862-27.356C575.451,766.372,575.575,766.519,573.568,766.129ZM169.09,859.921c4.61-.506,9.653-2.03,13.678-2.931,5.838-1.307,11.75,1.091,15.632,1.954,9.281,2.062,30.971-1.5,38.1-3.908,1.291-18.235-.092-37.727,0-56.666,0.051-10.577,2.972-19.853.977-30.287h-1.954c-3.591-2.363-15.931-.041-20.517.977v5.862c-3.74,5.938-.133,46.431,0,58.62-5.509,1.869-15.334,1.054-22.471.977-5.2-3.5-17.941-.11-22.471.977v14.655C168.76,852.1,168.989,856.508,169.09,859.921Zm438.673,37.126c7.675,0.543,13.684.048,22.471,0,3.969-33.966-1.812-69.406-1.954-103.562,21.417-.421,45.857-1.427,66.436.977l0.977-.977c0.354-7.244.846-15.4,0-22.471-10.663-.685-24.016-0.977-36.149-0.977H641.958c-11.287-2.442-25.195-2.859-38.1-2.931-1.2,2.229-1.6,2.2-1.954,5.862-7.245,10.731,3.852,22.929.977,36.149C596.835,836.9,604.42,872.1,607.763,897.047ZM266.79,770.037c-1.938,4.266-2.9,7.978-2.931,14.655-0.065,15.565,2.258,30.529,8.793,40.057,9.646,14.064,33.819,21.224,41.034,38.1,4,9.352,8.17,37.9,4.885,52.758-0.632,2.86-3.72,11.951-2.931,14.655,0.32,1.1,2.262,1.81,2.931,3.908-2.807,1.094-1.8.17-2.931,2.931h1.954c4.6,2.965,18.72,1.107,25.4.977v-1.954c5.429-7.116.16-23.067-.977-30.287V877.507c-3.261-13.822-7.194-28.258-14.655-38.1-9.032-11.917-28.024-15.264-36.149-28.333-6.246-10.047-.415-28.315-2.931-41.034h-8.793C276.213,772.22,271.032,770.367,266.79,770.037Zm11.724,97.7c-2.778,1.813-9.262,2.253-12.7,2.931l-0.977,2.931c-6.033,7.947-3.037,48.9-2.931,63.505,5.509,1.869,15.334,1.054,22.471.977,1-.786.268-0.347,1.954-0.977v-7.816c2.523-4.082.11-18.4-.977-23.448q0.977-18.072,1.954-36.149l-0.977-.977Zm-50.8,8.793c-11.893,8.143-45.241-5.64-56.666,2.931-2.693,4.173-2.056,14.3-1.954,20.517l0.977,0.977c18.477,0.812,42.108,1.3,60.574,0,1.34-2.484,1.873-3.423,1.954-7.816,1.915-2.912,1.1-11.019.977-15.632l-0.977-.977H227.71Z" transform="translate(-3 -7)"/>
</svg>
